<svg width="20" height="24" viewBox="0 0 20 24" fill="none" xmlns="http://www.w3.org/2000/svg">
<path d="M19.484 16.2745C19.4831 16.1441 19.4754 16.0123 19.4559 15.8836C19.3527 15.2059 19.0536 14.6282 18.5445 14.1673C18.0168 13.6891 17.3922 13.4423 16.679 13.4418C12.0499 13.44 7.42086 13.44 2.79177 13.4432C2.60813 13.4432 2.42131 13.4668 2.24086 13.5041C1.67677 13.6205 1.1954 13.8932 0.79995 14.3114C0.312677 14.8264 0.0476772 15.4414 0.0117681 16.1486C-0.00459552 16.4695 -0.00186824 16.7923 0.00767721 17.1136C0.0144954 17.3455 0.0335863 17.5786 0.070859 17.8073C0.190859 18.5395 0.483132 19.2036 0.903586 19.8127C1.44131 20.5918 2.13086 21.2114 2.92177 21.7227C3.89813 22.3541 4.96131 22.7823 6.08359 23.0723C6.72268 23.2377 7.37086 23.3586 8.02768 23.4214C8.43449 23.4605 8.84268 23.4805 9.2504 23.5082C9.33313 23.5136 9.41631 23.5164 9.4995 23.52H9.9795C9.9954 23.5177 10.0113 23.5136 10.0272 23.5132C10.1581 23.5091 10.2886 23.5068 10.4195 23.5018C11.0809 23.4755 11.7381 23.4068 12.3904 23.2918C13.224 23.1455 14.0377 22.9264 14.8249 22.6132C15.8186 22.2182 16.7381 21.6986 17.5409 20.9864C18.1577 20.4391 18.6677 19.8082 19.0231 19.06C19.2927 18.4927 19.4559 17.8964 19.479 17.2673C19.4913 16.9368 19.4859 16.6055 19.4831 16.275L19.484 16.2745Z" fill="#1D222B"/>
<path d="M5.83359 9.86864C7.25359 11.1755 8.93268 11.6573 10.8299 11.3159C12.0454 11.0973 13.0795 10.5145 13.9177 9.60727C14.9963 8.43954 15.5013 7.05227 15.4486 5.46318C15.4359 5.07864 15.3804 4.7 15.2849 4.32727C14.9668 3.08409 14.3095 2.055 13.3086 1.25273C12.3945 0.520454 11.3481 0.112273 10.179 0.0209091C10.0836 0.0136364 9.98768 0.00727273 9.89222 0H9.59768C9.58359 0.00227273 9.56995 0.00681818 9.55586 0.00681818C9.16586 0.0186364 8.7804 0.0663636 8.40268 0.163182C6.70677 0.598636 5.44677 1.59182 4.64677 3.14682C4.06586 4.27545 3.90359 5.47818 4.12677 6.72636C4.34722 7.96 4.91268 9.02 5.83404 9.86818L5.83359 9.86864Z" fill="#1D222B"/>
</svg>
