<svg width="14" height="17" viewBox="0 0 14 17" fill="none" xmlns="http://www.w3.org/2000/svg">
<path d="M9.10596 2.62305C9.6123 2.00879 9.96924 1.17041 9.96924 0.32373C9.96924 0.20752 9.96094 0.0913086 9.94434 0C9.11426 0.0332031 8.11816 0.547852 7.52881 1.24512C7.05566 1.77637 6.62402 2.62305 6.62402 3.46973C6.62402 3.60254 6.64893 3.72705 6.65723 3.76855C6.70703 3.77686 6.79004 3.79346 6.88135 3.79346C7.62012 3.79346 8.5498 3.29541 9.10596 2.62305ZM9.68701 3.96777C8.4502 3.96777 7.4375 4.72314 6.79004 4.72314C6.10107 4.72314 5.20459 4.01758 4.12549 4.01758C2.0752 4.01758 0 5.71094 0 8.89844C0 10.8906 0.763672 12.9907 1.71826 14.3438C2.53174 15.4893 3.24561 16.4272 4.2749 16.4272C5.2876 16.4272 5.73584 15.7549 6.99756 15.7549C8.27588 15.7549 8.56641 16.4106 9.68701 16.4106C10.7993 16.4106 11.5381 15.3896 12.2437 14.3853C13.0239 13.2314 13.356 12.1108 13.3643 12.0527C13.2979 12.0361 11.1729 11.1646 11.1729 8.73242C11.1729 6.62402 12.8413 5.67773 12.9409 5.60303C11.8369 4.01758 10.1519 3.96777 9.68701 3.96777Z" fill="white"/>
</svg>
