<svg width="24" height="24" viewBox="0 0 24 24" fill="none" xmlns="http://www.w3.org/2000/svg">
<path d="M24 4.58182V19.44C23.9932 19.4673 23.9832 19.4945 23.9791 19.5223C23.9568 19.6805 23.9441 19.84 23.9127 19.9964C23.4945 22.0832 21.7864 23.6786 19.6736 23.9591C19.5882 23.9705 19.5032 23.9864 19.4177 24H4.62545C4.59773 23.9932 4.57 23.9827 4.54182 23.9805C4.23364 23.9527 3.93136 23.8936 3.63455 23.8077C1.65091 23.2318 0.234091 21.52 0.04 19.4659C0.0340909 19.4055 0.0136364 19.3468 0 19.2873C0 14.4291 0 9.57091 0 4.71273C0.00818182 4.69318 0.0209091 4.67409 0.0236364 4.65364C0.0404545 4.52773 0.0513636 4.40091 0.0713636 4.27545C0.248636 3.14682 0.741364 2.17909 1.56864 1.39045C2.37545 0.621818 3.33818 0.174545 4.44545 0.0409091C4.54227 0.0290909 4.63818 0.0136364 4.73455 0C9.59273 0 14.4509 0 19.3091 0C19.34 0.00727273 19.3709 0.0186364 19.4027 0.0209091C20.0627 0.075 20.6932 0.240909 21.2782 0.551364C22.7809 1.34955 23.6755 2.59136 23.9586 4.27045C23.9759 4.37364 23.9868 4.47773 24.0005 4.58136L24 4.58182ZM20.3155 21.6955C20.2636 21.6532 20.2241 21.6259 20.1909 21.5927C17.9641 19.3668 15.7377 17.14 13.5109 14.9136C12.7218 14.1245 11.9332 13.3341 11.1427 12.5459C10.6377 12.0423 10.0282 11.7441 9.31955 11.6777C8.38727 11.5909 7.57 11.8723 6.90409 12.5336C5.29455 14.1327 3.69364 15.7409 2.08818 17.3441C2.035 17.3968 2.01227 17.4505 2.01273 17.5255C2.01545 18.0236 2.01273 18.5218 2.01455 19.02C2.01545 19.2605 2.045 19.4982 2.10455 19.7323C2.44909 21.0836 3.63864 22.0073 5.03727 22.0073C9.68409 22.0073 14.3309 22.0073 18.9773 22.0073C19.2182 22.0073 19.4564 21.9832 19.6905 21.9259C19.895 21.8759 20.0945 21.81 20.315 21.6955H20.3155ZM19.5182 7.00227C19.505 4.98727 17.8577 3.48136 15.9755 3.50455C14.0618 3.52864 12.4977 5.10091 12.5164 7.04045C12.535 8.96364 14.1173 10.5232 16.0573 10.5059C17.9586 10.4891 19.5245 8.91227 19.5182 7.00227Z" fill="#1D222B"/>
</svg>
