<svg width="43" height="43" viewBox="0 0 43 43" fill="none" xmlns="http://www.w3.org/2000/svg">
<g filter="url(#filter0_d_4684_13971)">
<rect x="3.11108" y="3.11133" width="36" height="36" rx="18" fill="#006337" shape-rendering="crispEdges"/>
<path d="M30.6679 23.7175C26.9164 24.681 23.1654 25.6467 19.4142 26.6114C18.5037 26.8455 17.5293 26.5737 16.8586 25.9293C15.0124 24.2693 13.1662 22.6093 11.32 20.9492L10.5258 21.7916C9.92985 22.4236 9.98321 23.4505 10.6406 24.0179L16.9697 29.4806C17.3635 29.8205 17.8984 29.9401 18.3999 29.8005L29.9242 26.5939C31.0296 26.19 31.1127 25.0102 30.9732 24.6046L30.6679 23.7175Z" fill="white"/>
<path d="M30.2467 18.9719C29.6098 18.6313 28.9745 18.2876 28.343 17.9363C25.6587 18.7058 22.8755 19.1085 20.149 19.699C19.3678 19.8271 18.7495 20.5814 18.9861 21.4109C19.2127 22.2525 20.1855 22.5431 20.9372 22.2905C23.4518 21.723 25.9671 21.1583 28.4823 20.5937C28.7579 20.5318 29.0426 20.694 29.11 20.9683C29.1787 21.2477 29.0052 21.5277 28.7268 21.5919C26.2087 22.1721 23.6906 22.7523 21.1719 23.3294C19.8678 23.7251 18.3357 23.0954 17.951 21.7003C17.5518 20.2985 18.5237 18.8787 19.9208 18.6369C22.4458 18.0888 24.9709 17.5408 27.497 16.9977C28.1286 16.9384 28.802 16.5653 28.9549 15.9011C29.1737 14.954 28.4683 14.4498 27.7337 14.1033C26.5334 13.5371 25.1212 12.3725 23.7417 12.3653C22.5317 12.3585 14.9368 13.9176 14.9368 13.9176C13.4026 14.1924 11.7885 14.3074 10.9675 15.9128C10.28 17.251 10.6573 18.9989 11.8191 19.9369C13.7366 21.6701 15.654 23.4034 17.5715 25.1366C18.0731 25.6418 18.8178 25.7396 19.4757 25.4942C19.4757 25.4942 29.5967 22.9355 29.9149 22.8694C30.9237 22.6595 32.0588 22.3042 32.1093 21.0647C32.1601 19.963 31.1366 19.3448 30.2467 18.9719Z" fill="white"/>
</g>
<defs>
<filter id="filter0_d_4684_13971" x="-2.71797e-05" y="0.000216961" width="42.2222" height="42.2222" filterUnits="userSpaceOnUse" color-interpolation-filters="sRGB">
<feFlood flood-opacity="0" result="BackgroundImageFix"/>
<feColorMatrix in="SourceAlpha" type="matrix" values="0 0 0 0 0 0 0 0 0 0 0 0 0 0 0 0 0 0 127 0" result="hardAlpha"/>
<feOffset/>
<feGaussianBlur stdDeviation="1.55556"/>
<feComposite in2="hardAlpha" operator="out"/>
<feColorMatrix type="matrix" values="0 0 0 0 1 0 0 0 0 1 0 0 0 0 1 0 0 0 0.65 0"/>
<feBlend mode="normal" in2="BackgroundImageFix" result="effect1_dropShadow_4684_13971"/>
<feBlend mode="normal" in="SourceGraphic" in2="effect1_dropShadow_4684_13971" result="shape"/>
</filter>
</defs>
</svg>
