<svg width="24" height="24" viewBox="0 0 24 24" fill="none" xmlns="http://www.w3.org/2000/svg">
<path d="M19 4H5C3.89543 4 3 4.89543 3 6V20C3 21.1046 3.89543 22 5 22H19C20.1046 22 21 21.1046 21 20V6C21 4.89543 20.1046 4 19 4Z" stroke="#A5A9BE" stroke-width="2" stroke-linecap="round" stroke-linejoin="round"/>
<path d="M16 2V6" stroke="#A5A9BE" stroke-width="2" stroke-linecap="round" stroke-linejoin="round"/>
<path d="M8 2V6" stroke="#A5A9BE" stroke-width="2" stroke-linecap="round" stroke-linejoin="round"/>
<path d="M3 10H21" stroke="#A5A9BE" stroke-width="2" stroke-linecap="round" stroke-linejoin="round"/>
<path d="M12 12.3333V19.6666" stroke="#A5A9BE" stroke-width="1.5" stroke-linecap="round" stroke-linejoin="round"/>
<path d="M13.6667 13.6667H11.1667C10.8572 13.6667 10.5605 13.7896 10.3417 14.0084C10.1229 14.2272 10 14.5239 10 14.8334C10 15.1428 10.1229 15.4395 10.3417 15.6583C10.5605 15.8771 10.8572 16 11.1667 16H12.8333C13.1428 16 13.4395 16.1229 13.6583 16.3417C13.8771 16.5605 14 16.8573 14 17.1667C14 17.4761 13.8771 17.7729 13.6583 17.9916C13.4395 18.2104 13.1428 18.3334 12.8333 18.3334H10" stroke="#A5A9BE" stroke-width="1.5" stroke-linecap="round" stroke-linejoin="round"/>
</svg>
