<svg width="40" height="40" viewBox="0 0 40 40" fill="none" xmlns="http://www.w3.org/2000/svg">
<rect width="40" height="40" rx="20" fill="#F2F3F7"/>
<path d="M20.2498 18.8796C22.4144 18.8796 24.1691 17.1248 24.1691 14.9603C24.1691 12.7957 22.4144 11.041 20.2498 11.041C18.0853 11.041 16.3305 12.7957 16.3305 14.9603C16.3305 17.1248 18.0853 18.8796 20.2498 18.8796Z" stroke="#8790B5" stroke-width="1.67969" stroke-miterlimit="10"/>
<path d="M26.023 22.2383H14.4775C13.6457 22.2383 12.9716 22.9324 12.9716 23.7888V24.409C12.9716 26.7895 15.9212 28.957 20.2502 28.957C24.5793 28.957 27.5289 26.7895 27.5289 24.409V23.7888C27.5289 22.9324 26.8547 22.2383 26.023 22.2383Z" stroke="#8790B5" stroke-width="1.67969" stroke-miterlimit="10"/>
</svg>
