<svg width="67" height="67" viewBox="0 0 67 67" fill="none" xmlns="http://www.w3.org/2000/svg">
<rect width="67" height="67" rx="33.5" fill="#EEF1E8"/>
<path d="M37.1211 29H31.1211C30.5907 29 30.082 29.2107 29.7069 29.5858C29.3318 29.9609 29.1211 30.4696 29.1211 31C29.1211 31.5304 29.3318 32.0391 29.7069 32.4142C30.082 32.7893 30.5907 33 31.1211 33H35.1211C35.6515 33 36.1602 33.2107 36.5353 33.5858C36.9104 33.9609 37.1211 34.4696 37.1211 35C37.1211 35.5304 36.9104 36.0391 36.5353 36.4142C36.1602 36.7893 35.6515 37 35.1211 37H29.1211M33.1211 38.5V27.5M25.1211 23V43L27.1211 42L29.1211 43L31.1211 42L33.1211 43L35.1211 42L37.1211 43L39.1211 42L41.1211 43V23L39.1211 24L37.1211 23L35.1211 24L33.1211 23L31.1211 24L29.1211 23L27.1211 24L25.1211 23Z" stroke="#8EB18B" stroke-width="2" stroke-linecap="round" stroke-linejoin="round"/>
</svg>
