<svg width="24" height="24" viewBox="0 0 24 24" fill="none" xmlns="http://www.w3.org/2000/svg">
<path d="M20.6661 6.06431L13.5073 1.90416C13.0492 1.63862 12.5291 1.49878 11.9996 1.49878C11.4701 1.49878 10.95 1.63862 10.4919 1.90416L3.33358 6.06431C3.30539 6.08086 3.28201 6.10449 3.26576 6.13285C3.24951 6.16122 3.24097 6.19334 3.24097 6.22603C3.24097 6.25872 3.24951 6.29085 3.26576 6.31921C3.28201 6.34758 3.30539 6.37121 3.33358 6.38775L11.9061 11.4306C11.9349 11.4475 11.9678 11.4565 12.0012 11.4565C12.0347 11.4565 12.0676 11.4475 12.0964 11.4306L20.667 6.38775C20.6952 6.37113 20.7185 6.34743 20.7346 6.31902C20.7508 6.2906 20.7593 6.25846 20.7592 6.22576C20.7591 6.19307 20.7504 6.16098 20.7341 6.13266C20.7178 6.10434 20.6943 6.08078 20.6661 6.06431ZM11.9998 7.1251C11.3787 7.1251 10.8748 6.78947 10.8748 6.3751C10.8748 5.96072 11.3787 5.6251 11.9998 5.6251C12.6209 5.6251 13.1248 5.96072 13.1248 6.3751C13.1248 6.78947 12.6209 7.1251 11.9998 7.1251Z" fill="#757A97"/>
<path d="M11.1553 12.6942L2.53027 7.66306C2.50178 7.64661 2.46947 7.63795 2.43657 7.63794C2.40367 7.63793 2.37135 7.64658 2.34286 7.66301C2.31436 7.67945 2.29069 7.70309 2.27422 7.73156C2.25775 7.76004 2.24906 7.79235 2.24902 7.82525V15.9777C2.24973 16.3705 2.35326 16.7563 2.54931 17.0967C2.74536 17.4371 3.02711 17.7202 3.36652 17.9179L10.9678 22.4756C10.9963 22.492 11.0286 22.5007 11.0615 22.5007C11.0944 22.5007 11.1267 22.492 11.1552 22.4756C11.1837 22.4592 11.2074 22.4355 11.2238 22.4071C11.2403 22.3786 11.249 22.3463 11.249 22.3134V12.8563C11.249 12.8235 11.2403 12.7912 11.2239 12.7627C11.2074 12.7342 11.1837 12.7106 11.1553 12.6942ZM4.49902 17.2499C4.08465 17.2499 3.74902 16.746 3.74902 16.1249C3.74902 15.5038 4.08465 14.9999 4.49902 14.9999C4.9134 14.9999 5.24902 15.5038 5.24902 16.1249C5.24902 16.746 4.9134 17.2499 4.49902 17.2499ZM8.99902 15.7499C8.58465 15.7499 8.24902 15.246 8.24902 14.6249C8.24902 14.0038 8.58465 13.4999 8.99902 13.4999C9.4134 13.4999 9.74902 14.0038 9.74902 14.6249C9.74902 15.246 9.4134 15.7499 8.99902 15.7499Z" fill="#757A97"/>
<path d="M21.4675 7.66453L12.8425 12.7294C12.8141 12.7458 12.7905 12.7693 12.7741 12.7977C12.7576 12.8261 12.7489 12.8583 12.7488 12.8911V22.3125C12.7488 22.3454 12.7575 22.3777 12.774 22.4062C12.7904 22.4347 12.8141 22.4583 12.8426 22.4747C12.8711 22.4912 12.9034 22.4998 12.9363 22.4998C12.9692 22.4998 13.0015 22.4911 13.03 22.4747L20.6308 17.917C20.9702 17.7195 21.2519 17.4365 21.4481 17.0963C21.6442 16.7561 21.7479 16.3705 21.7488 15.9778V7.82812C21.749 7.7951 21.7405 7.76262 21.7241 7.73394C21.7077 7.70527 21.6841 7.68143 21.6556 7.66483C21.627 7.64823 21.5946 7.63946 21.5616 7.6394C21.5286 7.63935 21.4961 7.64802 21.4675 7.66453ZM14.9988 19.875C14.5844 19.875 14.2488 19.3711 14.2488 18.75C14.2488 18.1289 14.5844 17.625 14.9988 17.625C15.4132 17.625 15.7488 18.1289 15.7488 18.75C15.7488 19.3711 15.4132 19.875 14.9988 19.875ZM14.9988 15.75C14.5844 15.75 14.2488 15.2461 14.2488 14.625C14.2488 14.0039 14.5844 13.5 14.9988 13.5C15.4132 13.5 15.7488 14.0039 15.7488 14.625C15.7488 15.2461 15.4132 15.75 14.9988 15.75ZM19.4988 17.25C19.0844 17.25 18.7488 16.7461 18.7488 16.125C18.7488 15.5039 19.0844 15 19.4988 15C19.9132 15 20.2488 15.5039 20.2488 16.125C20.2488 16.7461 19.9132 17.25 19.4988 17.25ZM19.4988 13.125C19.0844 13.125 18.7488 12.6211 18.7488 12C18.7488 11.3789 19.0844 10.875 19.4988 10.875C19.9132 10.875 20.2488 11.3789 20.2488 12C20.2488 12.6211 19.9132 13.125 19.4988 13.125Z" fill="#757A97"/>
</svg>
