<svg width="32" height="32" viewBox="0 0 32 32" fill="none" xmlns="http://www.w3.org/2000/svg">
<path d="M27.5545 8.08543L18.0095 2.53855C17.3987 2.1845 16.7052 1.99805 15.9992 1.99805C15.2932 1.99805 14.5997 2.1845 13.9889 2.53855L4.44453 8.08543C4.40694 8.10748 4.37576 8.13899 4.3541 8.17681C4.33244 8.21464 4.32104 8.25747 4.32104 8.30105C4.32104 8.34464 4.33244 8.38747 4.3541 8.42529C4.37576 8.46312 4.40694 8.49462 4.44453 8.51668L15.8745 15.2404C15.913 15.2631 15.9568 15.275 16.0014 15.275C16.046 15.275 16.0898 15.2631 16.1283 15.2404L27.5558 8.51668C27.5933 8.49451 27.6244 8.46292 27.6459 8.42503C27.6675 8.38715 27.6788 8.34428 27.6786 8.30069C27.6785 8.25711 27.667 8.21431 27.6452 8.17655C27.6235 8.13879 27.5922 8.10738 27.5545 8.08543ZM15.9995 9.4998C15.1714 9.4998 14.4995 9.0523 14.4995 8.4998C14.4995 7.9473 15.1714 7.4998 15.9995 7.4998C16.8277 7.4998 17.4995 7.9473 17.4995 8.4998C17.4995 9.0523 16.8277 9.4998 15.9995 9.4998Z" fill="#A5A9BE"/>
<path d="M14.8735 16.9252L3.37354 10.2171C3.33555 10.1952 3.29246 10.1836 3.2486 10.1836C3.20474 10.1836 3.16164 10.1951 3.12365 10.217C3.08565 10.2389 3.05409 10.2705 3.03212 10.3084C3.01016 10.3464 2.99858 10.3895 2.99854 10.4333V21.3033C2.99948 21.8271 3.13752 22.3414 3.39892 22.7953C3.66032 23.2491 4.03598 23.6266 4.48853 23.8902L14.6235 29.9671C14.6615 29.989 14.7046 30.0006 14.7485 30.0006C14.7923 30.0006 14.8354 29.9891 14.8734 29.9672C14.9114 29.9452 14.943 29.9137 14.9649 29.8757C14.9869 29.8378 14.9985 29.7947 14.9985 29.7508V17.1415C14.9985 17.0976 14.9869 17.0546 14.965 17.0166C14.943 16.9787 14.9115 16.9471 14.8735 16.9252ZM5.99854 22.9996C5.44604 22.9996 4.99854 22.3277 4.99854 21.4996C4.99854 20.6715 5.44604 19.9996 5.99854 19.9996C6.55104 19.9996 6.99854 20.6715 6.99854 21.4996C6.99854 22.3277 6.55104 22.9996 5.99854 22.9996ZM11.9985 20.9996C11.446 20.9996 10.9985 20.3277 10.9985 19.4996C10.9985 18.6715 11.446 17.9996 11.9985 17.9996C12.551 17.9996 12.9985 18.6715 12.9985 19.4996C12.9985 20.3277 12.551 20.9996 11.9985 20.9996Z" fill="#A5A9BE"/>
<path d="M28.6235 10.219L17.1235 16.9722C17.0857 16.994 17.0542 17.0255 17.0322 17.0633C17.0103 17.1011 16.9987 17.1441 16.9985 17.1878V29.7497C16.9986 29.7935 17.0102 29.8366 17.0321 29.8746C17.0541 29.9125 17.0856 29.9441 17.1236 29.966C17.1616 29.9879 17.2047 29.9994 17.2486 29.9994C17.2925 29.9994 17.3355 29.9879 17.3735 29.9659L27.5079 23.889C27.9604 23.6256 28.3361 23.2484 28.5976 22.7948C28.8591 22.3411 28.9973 21.827 28.9985 21.3034V10.4372C28.9988 10.3931 28.9875 10.3498 28.9657 10.3116C28.9438 10.2734 28.9123 10.2416 28.8742 10.2194C28.8362 10.1973 28.793 10.1856 28.7489 10.1855C28.7049 10.1855 28.6617 10.197 28.6235 10.219ZM19.9985 26.4997C19.446 26.4997 18.9985 25.8278 18.9985 24.9997C18.9985 24.1715 19.446 23.4997 19.9985 23.4997C20.551 23.4997 20.9985 24.1715 20.9985 24.9997C20.9985 25.8278 20.551 26.4997 19.9985 26.4997ZM19.9985 20.9997C19.446 20.9997 18.9985 20.3278 18.9985 19.4997C18.9985 18.6715 19.446 17.9997 19.9985 17.9997C20.551 17.9997 20.9985 18.6715 20.9985 19.4997C20.9985 20.3278 20.551 20.9997 19.9985 20.9997ZM25.9985 22.9997C25.446 22.9997 24.9985 22.3278 24.9985 21.4997C24.9985 20.6715 25.446 19.9997 25.9985 19.9997C26.551 19.9997 26.9985 20.6715 26.9985 21.4997C26.9985 22.3278 26.551 22.9997 25.9985 22.9997ZM25.9985 17.4997C25.446 17.4997 24.9985 16.8278 24.9985 15.9997C24.9985 15.1715 25.446 14.4997 25.9985 14.4997C26.551 14.4997 26.9985 15.1715 26.9985 15.9997C26.9985 16.8278 26.551 17.4997 25.9985 17.4997Z" fill="#A5A9BE"/>
</svg>
