<svg width="24" height="24" viewBox="0 0 24 24" fill="none" xmlns="http://www.w3.org/2000/svg">
<path d="M7 16.3008C9.2 16.3008 11 14.4708 11 12.2508C11 11.0908 10.43 9.99078 9.29 9.06078C8.15 8.13078 7.29 6.75078 7 5.30078C6.71 6.75078 5.86 8.14078 4.71 9.06078C3.56 9.98078 3 11.1008 3 12.2508C3 14.4708 4.8 16.3008 7 16.3008Z" stroke="#777A80" stroke-width="2" stroke-linecap="round" stroke-linejoin="round"/>
<path d="M12.56 6.59953C13.2477 5.50066 13.7353 4.28858 14 3.01953C14.5 5.51953 16 7.91953 18 9.51953C20 11.1195 21 13.0195 21 15.0195C21.0057 16.4018 20.6008 17.7547 19.8368 18.9066C19.0727 20.0586 17.9838 20.9577 16.7081 21.49C15.4324 22.0224 14.0274 22.1639 12.6711 21.8968C11.3149 21.6297 10.0685 20.9659 9.08997 19.9895" stroke="#777A80" stroke-width="2" stroke-linecap="round" stroke-linejoin="round"/>
</svg>
