<svg width="32" height="32" viewBox="0 0 32 32" fill="none" xmlns="http://www.w3.org/2000/svg">
<rect width="32" height="32" rx="8" fill="#F8F8FB" fill-opacity="0.15"/>
<path d="M11.384 21.176C10.616 21.176 9.944 20.952 9.368 20.504C8.792 20.056 8.34933 19.416 8.04 18.584C7.73067 17.7413 7.576 16.7333 7.576 15.56C7.576 14.408 7.73067 13.4107 8.04 12.568C8.34933 11.7253 8.792 11.08 9.368 10.632C9.944 10.1733 10.616 9.944 11.384 9.944C12.1627 9.944 12.8347 10.1733 13.4 10.632C13.976 11.08 14.4187 11.7253 14.728 12.568C15.0373 13.4107 15.192 14.408 15.192 15.56C15.192 16.7333 15.0373 17.7413 14.728 18.584C14.4187 19.416 13.976 20.056 13.4 20.504C12.8347 20.952 12.1627 21.176 11.384 21.176ZM11.384 19.384C11.8427 19.384 12.2107 19.2133 12.488 18.872C12.7653 18.5307 12.968 18.072 13.096 17.496C13.2347 16.9093 13.304 16.264 13.304 15.56C13.304 14.9307 13.2347 14.3227 13.096 13.736C12.968 13.1493 12.7653 12.6747 12.488 12.312C12.2107 11.9387 11.8427 11.752 11.384 11.752C10.9147 11.752 10.536 11.9387 10.248 12.312C9.96 12.6747 9.752 13.1493 9.624 13.736C9.50667 14.3227 9.448 14.9307 9.448 15.56C9.448 16.264 9.50667 16.9093 9.624 17.496C9.752 18.072 9.96 18.5307 10.248 18.872C10.536 19.2133 10.9147 19.384 11.384 19.384ZM22.8856 13.928V21H20.9976V17.208L20.7096 16.632L21.7336 13.928H22.8856ZM16.3576 18.344V17.208L19.1096 10.104H20.9816L18.1976 17.432L17.9096 16.552H24.3896V18.344H16.3576Z" fill="#E5E7EF"/>
</svg>
