<svg width="30" height="30" viewBox="0 0 30 30" fill="none" xmlns="http://www.w3.org/2000/svg">
<g clip-path="url(#clip0_2031_6767)">
<path d="M15 23.9395C11.1328 23.9395 7.8389 21.4837 6.59324 18.0466L1.6825 21.909C4.18166 26.7164 9.20742 30.0003 15.0001 30.0003C18.7472 30.0003 22.1733 28.6264 24.8021 26.3549L19.7538 22.5723C18.3315 23.4679 16.6827 23.942 15 23.9395Z" fill="#34A853"/>
<path d="M15 6.06061C17.1893 6.06061 19.1946 6.84739 20.7488 8.15378L25.0679 3.88082C22.4067 1.46933 18.8752 0 15 0C9.15274 0 4.08686 3.34583 1.61249 8.22775L6.52934 12.1357C7.72316 8.60327 11.0648 6.06061 15 6.06061Z" fill="#EA4335"/>
<path d="M6.06046 15.0001C6.05943 14.0262 6.21776 13.0587 6.52922 12.1355L1.61237 8.22751C0.581024 10.2627 0 12.5631 0 15.0001C0 17.4916 0.607566 19.8412 1.68215 21.909L6.59289 18.0466C6.23936 17.0695 6.05919 16.0386 6.06046 15.0001Z" fill="#FFB902"/>
<path d="M29.7791 12.4212H14.7838V18.0428H23.4081C22.7287 19.9148 21.443 21.5082 19.7536 22.5717L24.8019 26.3551C27.2539 24.2367 29.0123 21.3374 29.6911 18.0437C30.0708 16.1915 30.1007 14.2851 29.7791 12.422V12.4212Z" fill="#4285F4"/>
</g>
<defs>
<clipPath id="clip0_2031_6767">
<rect width="30" height="30" fill="white"/>
</clipPath>
</defs>
</svg>
