<svg width="40" height="40" viewBox="0 0 40 40" fill="none" xmlns="http://www.w3.org/2000/svg">
<rect width="40" height="40" rx="20" fill="#8790B5"/>
<path d="M20.2498 18.8803C22.4144 18.8803 24.1691 17.1256 24.1691 14.961C24.1691 12.7965 22.4144 11.0417 20.2498 11.0417C18.0853 11.0417 16.3306 12.7965 16.3306 14.961C16.3306 17.1256 18.0853 18.8803 20.2498 18.8803Z" stroke="#E5E7EF" stroke-width="1.67969" stroke-miterlimit="10"/>
<path d="M26.023 22.2397H14.4776C13.6458 22.2397 12.9717 22.9338 12.9717 23.7902V24.4104C12.9717 26.7909 15.9213 28.9585 20.2503 28.9585C24.5794 28.9585 27.529 26.7909 27.529 24.4104V23.7902C27.529 22.9338 26.8548 22.2397 26.023 22.2397Z" stroke="#E5E7EF" stroke-width="1.67969" stroke-miterlimit="10"/>
</svg>
