<svg width="31" height="24" viewBox="0 0 31 24" fill="none" xmlns="http://www.w3.org/2000/svg">
<path d="M22.4052 21.4723C22.3584 21.3292 22.4201 21.1484 22.5005 21.0127C22.5254 20.9702 22.6308 20.9951 22.6527 20.9658C22.6956 20.9081 22.645 20.8541 22.6956 20.7956C22.7128 20.7764 22.8801 20.805 22.8944 20.7847C22.9713 20.6733 22.9308 20.5659 22.9685 20.4534C23.1544 19.9043 23.2184 19.3551 23.2828 18.788C23.304 18.6005 23.4499 18.3774 23.3757 18.1837C23.3669 18.1614 23.2201 18.1806 23.2078 18.1768C23.0193 18.1173 23.3175 18.1277 23.3552 18.0822C23.504 17.902 23.5079 17.7083 23.4414 17.5479C23.4126 17.4789 23.1246 17.5672 23.2843 17.4859C23.2951 17.4802 23.4525 17.4888 23.4679 17.4681C23.5027 17.4213 23.4694 17.3388 23.4794 17.3038C23.4996 17.2361 23.4973 17.2253 23.4946 17.163C23.4923 17.0778 23.5622 16.971 23.5194 16.8836C23.5098 16.865 23.352 16.9035 23.3223 16.8753C23.2926 16.8468 23.2994 16.7662 23.3345 16.7343C23.3697 16.7032 23.4964 16.7038 23.5248 16.6964C23.7642 16.6336 23.4188 16.5684 23.4093 16.5575C23.2464 16.3484 23.4179 16.144 23.3923 15.9351C23.3724 15.7763 23.2873 15.6171 23.275 15.4686C23.2612 15.2933 23.3235 15.1265 23.2802 14.9577C23.2758 14.9399 23.0933 14.9921 23.0876 14.9705C23.0271 14.7425 23.005 14.5111 23.0824 14.2547C23.0903 14.2289 23.2587 14.2254 23.2763 14.1975C23.3809 14.0291 23.6483 13.7259 22.9258 13.8048C22.9311 13.7032 22.9316 13.5821 23.0512 13.4617C23.128 13.384 23.3165 13.393 23.2246 13.3441C23.204 13.3331 23.056 13.3921 23.0369 13.3728C22.9564 13.2923 22.9781 13.1743 22.8732 13.1016C22.8516 13.0869 22.7166 13.1301 22.6905 13.1315C22.4792 13.1424 22.7866 12.9752 22.8055 12.9514C22.9471 12.7748 22.8495 12.703 22.818 12.5862C22.8106 12.5588 22.639 12.6472 22.6255 12.6232C22.5577 12.4977 22.5286 12.3565 22.5641 12.1997C22.5724 12.1647 22.7347 12.1386 22.7465 12.119C22.7962 12.0329 22.5026 12.1202 22.5445 12.0405C22.5529 12.0237 22.6861 11.9842 22.6997 11.9769C22.9124 11.8613 22.5822 11.9444 22.572 11.9382C22.4349 11.8597 22.7392 11.6636 22.6497 11.5698C22.6387 11.5589 22.4863 11.6515 22.4654 11.6173C22.3259 11.3901 22.265 11.1191 22.2855 10.8224C22.2885 10.7764 22.4206 10.7487 22.4344 10.7398C22.6483 10.5965 22.327 10.7119 22.3099 10.7053C22.1827 10.649 22.3983 10.4373 22.002 10.5481C21.9362 10.086 21.5313 9.81182 21.62 9.24946C21.6208 9.24244 21.7701 9.16578 21.7709 9.15209C21.7815 8.98604 21.5709 9.14163 21.253 9.23174C21.1734 9.2548 21.4652 8.99526 21.4857 8.97484C21.5622 8.9011 21.7864 8.78963 21.7995 8.77262C21.9001 8.63517 21.2059 9.07984 21.1622 9.01095C21.162 9.00803 21.2961 8.93624 21.3052 8.9223C21.3335 8.8785 21.2714 8.89317 21.3042 8.84741C21.3806 8.74232 21.7078 8.51033 21.4712 8.57389C21.4407 8.5825 21.0561 8.84881 21.0349 8.77595C21.0268 8.74656 20.9489 8.64354 20.9536 8.59653C20.9585 8.54952 21.0974 8.48598 21.1014 8.48022C21.2109 8.28642 21.3003 8.27123 21.5153 8.06284C21.7287 7.85416 21.1586 8.26241 21.0826 8.29C21.0068 8.31739 21.1006 8.16402 21.1372 8.11668C21.1738 8.06927 21.2651 8.0328 21.2825 8.00114C21.3943 7.79227 20.971 8.16298 20.8603 8.19893C20.599 8.28577 20.9859 7.93302 20.9821 7.84106C20.9812 7.8164 20.8952 7.89945 20.8756 7.89128C20.7993 7.85834 20.9041 7.72692 20.7356 7.74952C20.7079 7.75288 20.4186 7.88787 20.5761 7.71582C20.5988 7.69107 20.7126 7.6267 20.7173 7.58479C20.7247 7.52239 20.6972 7.4397 20.6329 7.42727C20.5854 7.41821 20.4418 7.58151 20.4665 7.50515C20.4776 7.47105 20.5993 7.42418 20.6116 7.36632C20.6241 7.30857 20.5594 7.23499 20.5328 7.20848C20.5062 7.18205 20.392 7.29869 20.3816 7.3031C20.3214 7.32774 20.2165 7.32141 20.2127 7.31647C20.0001 7.08316 20.0266 6.69108 19.7512 6.51443C19.7299 6.50061 19.6125 6.62567 19.608 6.62473C19.5 6.61045 19.8833 6.35866 19.9587 6.21459C19.7049 6.45067 19.7295 6.38376 19.6627 6.366C19.6303 6.35765 19.5404 6.45844 19.5285 6.4657C19.3495 6.57127 19.5263 6.37429 19.5612 6.33261C19.6899 6.17954 19.4962 6.3143 19.5818 6.21155C19.6664 6.10925 19.84 6.0106 19.8 5.97035C19.6977 6.04224 19.4859 6.29105 19.4186 6.29522C19.1665 6.31281 19.1462 5.91964 19.0778 5.81085C19.0085 5.70073 18.963 5.68702 18.9428 5.60211C18.9055 5.44843 18.7688 5.65252 18.6317 5.67051C18.4945 5.68855 18.9424 5.29984 19.0239 5.2014C19.1053 5.10298 19.0033 5.18599 19.042 5.12585C19.0806 5.06568 19.1651 5.02784 19.1583 4.9839C19.1513 4.93979 18.922 5.03097 18.8205 5.11782C18.6042 5.30024 18.4266 5.54033 18.4353 5.40319C18.4359 5.39515 18.557 5.29598 18.5538 5.27077C18.5243 5.07395 18.4089 4.95241 18.3635 4.76347C18.3573 4.73728 18.4909 4.62538 18.4886 4.60867C18.4648 4.43395 18.3 4.67979 18.0242 4.86563C18.3316 4.56236 18.4803 4.3398 18.4075 4.26878C18.3635 4.22571 18.2433 4.37123 18.1242 4.44208C18.0884 4.46353 18.1441 4.33896 18.0784 4.39891C17.8635 4.59492 17.6742 4.86128 17.685 4.69614C17.6857 4.68853 17.8034 4.5812 17.7982 4.56345C17.7647 4.44794 17.552 4.66412 17.4455 4.6176C17.3624 4.58158 17.3676 4.3388 17.3137 4.25153C17.6359 3.88882 17.4921 3.91036 17.2439 4.13775C17.205 4.08562 17.1406 4.05476 17.1238 3.97928C17.118 3.9534 17.2203 3.85619 17.2282 3.84294C17.3521 3.63544 17.1184 3.8637 17.0996 3.8644C16.9047 3.8606 16.9692 3.59195 16.7019 3.68241C16.6922 3.68563 16.4698 3.93882 16.5988 3.726C16.6078 3.71139 16.742 3.62375 16.6985 3.57196C16.6552 3.5203 16.6727 3.30015 16.5009 3.36109C16.4594 3.37563 16.242 3.55105 16.3415 3.35642C16.3551 3.33005 16.4215 3.25946 16.4486 3.21216C16.5345 3.06108 16.3072 3.31523 16.4634 3.06931C16.6196 2.82342 16.6998 2.60942 16.4987 2.70377C16.4926 2.70632 16.3055 2.90226 16.2845 2.8799C16.251 2.84397 16.2317 2.75658 16.1926 2.72771C16.1736 2.71373 16.081 2.85431 16.0759 2.85416C15.8936 2.82922 15.8974 2.64193 15.8008 2.48432C15.7832 2.45508 15.5712 2.57978 15.6329 2.39911C15.7 2.20096 16.2588 1.59259 16.0128 1.65068C15.9129 1.67284 15.2169 2.45484 15.4568 1.95779C15.2046 1.93454 15.2091 1.59191 14.917 1.61368C14.9039 1.61455 14.7054 1.83012 14.6891 1.81311C14.6651 1.78736 14.7305 1.66645 14.7158 1.64447C14.6547 1.54851 14.5146 1.59034 14.4457 1.51773C14.4197 1.49058 14.513 1.38437 14.4817 1.35189C14.4503 1.31948 14.3175 1.45224 14.3212 1.34433C14.3243 1.26234 14.5089 0.92814 14.4848 0.856379C14.2645 1.15847 14.235 1.12774 14.1168 1.16445C14.094 1.17165 14.0308 1.28639 14.0161 1.29526C13.9546 1.33374 13.9966 1.23118 13.9328 1.27531C13.9174 1.28587 13.8429 1.38958 13.8262 1.40409C13.681 1.53144 13.7881 1.25518 13.8067 1.20705C13.8773 1.02421 13.7626 1.14645 13.7755 1.06391C13.7886 0.981572 13.8873 0.936934 13.8789 0.875363C13.862 0.748422 13.7579 0.700323 13.688 0.644144C13.6597 0.622365 13.5818 0.77591 13.5755 0.776032C13.4904 0.769199 13.5326 0.577575 13.3048 0.832593C13.7642 0.0829183 13.2196 0.876915 13.2326 0.672102C13.2339 0.655662 13.4615 0.308416 13.5229 0.276833C13.5843 0.245317 13.5505 0.37983 13.6415 0.327454C13.6629 0.315174 13.9353 0.0309634 13.9557 0.0164525C14.1146 -0.0971248 13.7665 0.416359 13.7497 0.446209C13.5705 0.769534 13.8711 0.468547 13.9037 0.456086C14.0525 0.398557 14.0635 0.513067 14.1784 0.47838C14.2545 0.457343 14.4937 0.12883 14.5187 0.161847C14.602 0.271532 14.3087 0.758606 14.6942 0.430227C14.7765 0.360303 15.0146 -0.0154855 14.8871 0.322917C14.8791 0.344298 14.7485 0.643939 14.8992 0.503523C14.9181 0.485817 14.9938 0.380837 15.0056 0.375915C15.0829 0.345026 15.0464 0.445916 15.1145 0.434317C15.1826 0.42272 15.2729 0.397401 15.2914 0.465257C15.3027 0.506006 15.1944 0.725569 15.1721 0.782443C15.1071 0.945618 15.3109 0.7494 15.2121 0.932353C15.1123 1.11592 14.8814 1.33621 14.8618 1.48786C15.0635 1.21884 15.2734 0.944835 15.4778 0.675372C15.6038 0.783025 15.6679 0.966321 15.8068 1.0521C15.8242 1.06248 15.9163 0.90558 15.9379 0.913019C16.0283 0.945121 16.014 1.09582 16.1197 1.11175C16.202 1.12354 16.381 1.01944 16.4738 1.02984C16.2777 1.36432 16.4489 1.33129 16.4936 1.41049C16.5093 1.43806 16.4447 1.51803 16.4405 1.55724C16.4261 1.70311 16.606 1.41233 16.6559 1.38335C16.8694 1.26028 16.4016 1.8714 16.4973 1.92237C16.5021 1.92519 16.8106 1.64599 16.834 1.63199C16.9852 1.53913 16.7535 1.75029 16.7645 1.79765C16.7845 1.88416 16.7608 1.99047 16.8989 1.94696C16.9401 1.93432 17.146 1.77158 17.0591 1.95549C17.0477 1.97958 16.9601 2.08311 16.959 2.09243C16.9463 2.25207 17.2155 1.92188 17.3467 1.84242C17.478 1.76309 17.3546 2.04184 17.3133 2.11761C17.2074 2.31418 17.2291 2.16985 17.2137 2.18508C17.0313 2.36682 17.1038 2.36894 17.124 2.4134C16.8646 2.74094 16.9272 2.75981 17.1459 2.45816C17.1697 2.42513 17.1187 2.43373 17.124 2.4134C17.413 2.12021 17.4996 2.12335 17.3131 2.466C17.2256 2.6265 17.0673 2.76716 17.1962 2.77449C17.2546 2.778 17.4243 2.54503 17.5067 2.51156C17.6941 2.43466 17.6206 2.72327 17.7249 2.75616C17.7628 2.76818 17.8372 2.62489 17.8668 2.62903C17.9455 2.63976 17.9136 2.76777 18.0035 2.76514C18.0118 2.76476 18.1078 2.62995 18.125 2.64191C18.2574 2.73027 18.2912 2.89942 18.4108 3.00846C18.4685 3.06087 18.6384 3.09016 18.6879 3.15911C18.7753 3.27861 18.7435 3.57365 18.8712 3.61228C18.9543 3.63819 19.0535 3.50545 19.1548 3.4461C19.3505 3.33055 19.1718 3.6974 19.1417 3.75209C19.1407 3.75385 19.0634 3.73469 19.0326 3.8218C18.9277 3.96513 19.1406 3.75208 19.1417 3.75209C19.1228 3.78774 19.1977 3.90984 19.2391 3.90584C19.2618 3.90361 19.3633 3.78466 19.3731 3.78567C19.6038 3.81216 19.7654 3.91345 19.846 4.09582C19.8461 4.10035 19.7198 4.22116 19.7216 4.23025C19.744 4.36176 19.945 4.2605 20.0991 4.23574C20.2533 4.21106 20.2741 4.29306 20.0964 4.54044C20.1708 4.56258 20.1428 4.72438 20.1227 4.8197C20.1025 4.91499 20.3538 4.68574 20.3621 4.68467C20.622 4.64561 20.5463 4.84924 20.6323 4.98694C20.6733 5.05328 20.8115 5.13166 20.8942 5.16815C20.9601 5.19662 20.9266 5.27884 21.0043 5.28964C21.0148 5.29118 21.1227 5.18461 21.1287 5.1826C21.3089 5.11287 21.0101 5.33386 20.9697 5.3879C20.8231 5.5852 20.7469 5.69242 20.8886 5.68292C20.9209 5.68059 21.3621 5.37582 21.4101 5.38386C21.4715 5.39457 21.3147 5.5052 21.3823 5.51309C21.388 5.51388 21.477 5.43664 21.4932 5.46363C21.5696 5.58807 21.616 5.75063 21.719 5.85812C21.733 5.8734 21.861 5.73456 21.8837 5.75486C21.9901 5.85021 22.0812 5.97554 22.0959 6.13643C22.099 6.17637 21.9829 6.2404 21.9567 6.27C21.7982 6.44908 22.1061 6.28876 22.1178 6.29327C22.398 6.38811 22.2676 6.73056 22.5334 6.84837C22.5481 6.85399 22.9093 6.72967 22.6799 6.94976C22.6649 6.96467 22.4283 7.18696 22.6319 7.09482C22.6447 7.08912 22.7637 6.9705 22.779 7.02204C22.7944 7.07366 22.9335 7.08087 22.823 7.24179C22.7884 7.29287 22.5516 7.51491 22.8007 7.42772C22.8174 7.4206 23.3571 7.18865 23.0444 7.43898C22.9928 7.48008 22.6365 7.70596 22.8605 7.65339C22.9038 7.64317 22.9678 7.56884 23.0388 7.57035C23.1484 7.57285 23.0965 7.70137 23.296 7.66525C23.3311 7.65853 23.6046 7.55541 23.4445 7.70962C23.4194 7.73369 23.2926 7.79659 23.2919 7.82531C23.2877 7.96182 23.4301 8.01478 23.4053 8.16372C23.3966 8.21616 23.1901 8.31447 23.1587 8.38135C23.1274 8.44829 23.1185 8.5494 23.2302 8.535C23.3423 8.52094 23.6327 8.29794 23.6914 8.34188C23.9478 8.53621 23.8988 8.89402 24.002 9.16637C24.0173 9.20705 24.1171 9.11634 24.1481 9.17254C24.2633 9.37777 24.5487 9.69956 24.3779 9.99868C24.2407 10.2358 24.0053 10.118 23.9718 10.2657C23.9556 10.3358 24.3683 10.2278 24.3864 10.2363C24.566 10.3136 24.4309 10.4765 24.5311 10.5718C24.5519 10.5917 24.7011 10.5041 24.7171 10.5219C24.7732 10.5824 24.7317 10.6855 24.771 10.7488C24.789 10.7771 24.9088 10.7247 24.9102 10.7568C24.9151 10.833 24.8863 10.9129 24.7957 11.0212C24.7874 11.0309 24.6202 11.0469 24.6327 11.0986C24.6536 11.1825 24.5752 11.3217 24.725 11.3728C24.7699 11.3878 25.0526 11.2918 24.8781 11.4184C24.8417 11.445 24.4969 11.5444 24.8136 11.5138C24.8661 11.508 25.3022 11.4949 25.0651 11.6371C25.0028 11.6745 24.7361 11.8032 24.7906 11.8221C24.799 11.8244 24.9459 11.7573 24.9697 11.7804C25.051 11.8629 25.0664 11.9705 25.1447 12.0569C25.166 12.08 25.3129 11.992 25.3395 12.0282C25.4132 12.1281 25.413 12.2807 25.3933 12.4044C25.3858 12.4502 25.2455 12.4587 25.2319 12.4656C25.0102 12.577 25.3345 12.518 25.3573 12.529C25.4947 12.5979 25.3647 12.7103 25.4271 12.7896C25.4439 12.8117 25.5912 12.7555 25.606 12.7569C25.7513 12.7749 25.469 12.8058 25.4472 12.8458C25.3849 12.9578 25.4217 13.0553 25.463 13.1429C25.4784 13.175 25.6461 13.0951 25.6579 13.1247C25.7313 13.3001 25.7556 13.4912 25.694 13.6875C25.6821 13.7245 25.5408 13.7319 25.511 13.7452C25.3018 13.8371 25.6143 13.8453 25.646 13.8561C25.7906 13.9033 25.6748 13.9558 25.7099 14.0161C25.8833 14.309 25.8676 14.7144 25.8601 15.0173C25.851 15.4091 25.7558 15.7283 25.8277 16.0841C25.8321 16.107 26.0147 16.0646 26.0209 16.0842C26.0922 16.3395 26.0426 16.6036 26.1156 16.8555C26.1212 16.8765 26.2947 16.8325 26.3097 16.8658C26.3418 16.9341 26.3386 17.0243 26.2872 17.0995C26.2625 17.1361 26.1084 17.0997 26.0866 17.1362C26.0354 17.2209 26.0284 17.3094 26.0614 17.3904C26.0759 17.4244 26.2528 17.3614 26.2575 17.4066C26.2932 17.7131 26.3381 18.0267 26.1144 18.3455C26.0991 18.3673 25.7333 18.3969 25.8049 18.4396C25.9066 18.44 26.0262 18.4364 26.1349 18.4347C26.2065 18.8832 26.0844 19.329 26.0634 19.777C26.0626 19.7961 26.2569 19.7637 26.2562 19.8007C26.2526 20.0177 26.3043 20.2175 26.1078 20.4309C26.0886 20.4519 25.7472 20.4353 25.7978 20.4988C25.807 20.51 25.8508 20.6055 25.9244 20.6316C25.9355 20.6352 26.0953 20.621 26.0993 20.6519C26.1199 20.8322 26.0787 21.0169 25.976 21.1882C25.9592 21.216 25.7904 21.1808 25.7769 21.2005C25.6824 21.3399 25.8061 21.5002 25.6468 21.6323C25.5396 21.7205 25.2476 21.6751 24.957 21.7125C24.916 21.7177 24.9073 21.7741 24.7392 21.7703C24.3165 21.7606 23.8551 21.715 23.4044 21.708C23.3074 21.7064 23.4088 21.7847 23.1762 21.7313C23.1607 21.7276 23.0851 21.6709 23.0061 21.6547C22.9515 21.6434 22.78 21.653 22.7104 21.6317C22.6408 21.6104 22.7848 21.5956 22.7033 21.5617C22.6208 21.5279 22.426 21.5339 22.4052 21.4723ZM20.0324 5.24694C19.9483 5.39599 20.3903 4.99283 20.2473 5.04963C20.2399 5.05286 20.0364 5.23951 20.0324 5.24694ZM15.3966 1.32717C15.2909 1.57753 15.5591 1.29374 15.6443 1.10298C15.7291 0.912178 15.4284 1.25112 15.3966 1.32717ZM14.7386 1.08133C14.6765 1.29351 15.1863 0.615435 15.0197 0.706226C15.0102 0.711275 14.7421 1.06897 14.7386 1.08133ZM24.8832 21.4851C24.8752 21.4855 24.866 21.5256 24.8739 21.5268C25.0629 21.5553 25.0812 21.4749 24.8832 21.4851ZM14.074 0.861463C14.0269 0.968807 14.1597 0.900807 14.2184 0.767411C14.2656 0.660026 14.1324 0.727835 14.074 0.861463ZM21.2173 7.66798C21.2106 7.67385 21.2209 7.70177 21.2614 7.67179C21.3918 7.57516 21.331 7.56933 21.2173 7.66798ZM13.1413 0.22166C13.2634 0.344272 12.9478 0.978018 12.8429 0.809589C12.8237 0.779024 13.0284 0.666052 13.0295 0.590136C13.0311 0.451431 12.7397 0.784999 12.8077 0.545834C12.8202 0.502062 13.1352 0.213332 13.1422 0.221026C13.1419 0.221236 13.1416 0.22145 13.1413 0.22166ZM19.5285 5.75993C19.5234 5.76608 19.5452 5.80034 19.5516 5.79569C19.7053 5.68197 19.6609 5.61234 19.5285 5.75993ZM21.8133 9.25538C21.7999 9.26574 21.8311 9.35108 21.846 9.34587C22.139 9.23222 22.0747 9.05584 21.8133 9.25538ZM17.3211 4.24081C17.1635 4.35657 17.1114 4.34091 17.2439 4.13806C17.2671 4.1752 17.2974 4.20432 17.3211 4.24081Z" fill="#001F01"/>
<path d="M17.1362 23.8374C17.045 23.7313 17.0426 23.5555 17.0723 23.4115C17.0814 23.3664 17.188 23.3495 17.1987 23.3167C17.2195 23.2526 17.1538 23.2239 17.1821 23.1582C17.1919 23.1361 17.3571 23.099 17.3637 23.0769C17.3973 22.9526 17.3228 22.8749 17.3194 22.7648C17.3048 22.2282 17.1713 21.7354 17.0271 21.2338C16.9789 21.0671 17.0301 20.8185 16.8926 20.6899C16.8763 20.6746 16.7495 20.7509 16.7369 20.7527C16.5428 20.7798 16.8187 20.6664 16.8361 20.6125C16.9044 20.3992 16.8346 20.2344 16.7139 20.1294C16.6622 20.085 16.4343 20.2795 16.549 20.1459C16.5567 20.1368 16.702 20.0766 16.7085 20.0533C16.7222 19.9996 16.66 19.9442 16.6556 19.9107C16.6476 19.8454 16.6413 19.8373 16.6147 19.7865C16.5797 19.7166 16.6009 19.5973 16.5283 19.5438C16.5125 19.5327 16.3859 19.6339 16.3483 19.6239C16.3107 19.6137 16.2852 19.5443 16.3049 19.5037C16.3241 19.4623 16.4377 19.4064 16.4601 19.3876C16.6492 19.2286 16.3142 19.3285 16.3015 19.3241C16.0729 19.2251 16.1446 18.982 16.0357 18.8224C15.9527 18.7018 15.8122 18.6134 15.7397 18.5003C15.6549 18.3665 15.6365 18.1996 15.5268 18.0865C15.5153 18.0745 15.3802 18.2076 15.3661 18.1933C15.2178 18.0438 15.0964 17.8702 15.0483 17.6286C15.0435 17.6041 15.1845 17.5128 15.1868 17.4815C15.2015 17.2949 15.2782 16.9035 14.7122 17.3579C14.6701 17.2757 14.6149 17.1813 14.6573 17.0212C14.6841 16.9177 14.8447 16.8211 14.7446 16.8328C14.7223 16.8353 14.6281 16.9636 14.6029 16.9589C14.4975 16.9396 14.4588 16.8353 14.3381 16.8378C14.3134 16.8387 14.2236 16.9483 14.203 16.9642C14.036 17.0922 14.2069 16.789 14.2106 16.7595C14.2404 16.5419 14.1244 16.5406 14.0407 16.4678C14.0212 16.4508 13.9263 16.6184 13.9036 16.6076C13.7875 16.55 13.6942 16.4582 13.6434 16.3162C13.6323 16.2842 13.7488 16.1687 13.7482 16.1467C13.7438 16.0505 13.554 16.2909 13.5468 16.2045C13.5449 16.1865 13.6308 16.0774 13.6379 16.0637C13.7478 15.8485 13.5274 16.1078 13.5163 16.1091C13.3675 16.1298 13.5067 15.7968 13.3868 15.7774C13.3724 15.7755 13.3001 15.938 13.2659 15.924C13.0383 15.8322 12.8457 15.6584 12.7042 15.4168C12.6819 15.3793 12.7703 15.2779 12.7763 15.2626C12.8666 15.0219 12.6772 15.3059 12.6604 15.3112C12.5308 15.3444 12.5837 15.0487 12.334 15.375C12.0356 15.0573 11.571 15.0893 11.3297 14.5914C11.3265 14.5855 11.4011 14.4351 11.3944 14.4239C11.3135 14.2873 11.2339 14.5365 11.0352 14.7988C10.9857 14.8648 11.0726 14.4848 11.0776 14.4564C11.0974 14.3523 11.2118 14.1297 11.2128 14.1084C11.2172 13.9397 10.9163 14.7072 10.8446 14.6788C10.8429 14.6766 10.9088 14.5395 10.9083 14.5231C10.9069 14.4715 10.8657 14.52 10.8663 14.464C10.8683 14.3348 10.9987 13.9555 10.8469 14.1466C10.8276 14.1716 10.6702 14.6121 10.6148 14.567C10.5928 14.5486 10.4768 14.5131 10.4553 14.4728C10.4339 14.4324 10.5087 14.2995 10.5087 14.2925C10.491 14.0733 10.5529 14.0082 10.6104 13.7149C10.6666 13.4224 10.4374 14.0851 10.3925 14.1519C10.3478 14.2186 10.3391 14.0405 10.3422 13.9809C10.3454 13.9213 10.3981 13.8385 10.3946 13.8028C10.3699 13.5693 10.2352 14.1153 10.1666 14.2089C10.0044 14.4308 10.1235 13.9217 10.0726 13.85C10.059 13.8308 10.035 13.9478 10.0153 13.9527C9.93816 13.9708 9.95199 13.804 9.83113 13.9201C9.8112 13.939 9.65314 14.2156 9.68755 13.9853C9.69254 13.9521 9.74906 13.8343 9.73056 13.7976C9.70302 13.7425 9.63668 13.6908 9.57822 13.7174C9.53509 13.737 9.50705 13.9524 9.48592 13.8758C9.47659 13.8416 9.5492 13.7339 9.52871 13.6797C9.50904 13.6258 9.42067 13.6032 9.3862 13.5968C9.3518 13.5905 9.32094 13.7506 9.31496 13.7602C9.27996 13.8146 9.19336 13.8692 9.18782 13.8672C8.8995 13.7974 8.71308 13.4568 8.40899 13.4631C8.3851 13.4633 8.35248 13.6316 8.34835 13.6334C8.25345 13.6805 8.43825 13.2612 8.42701 13.0999C8.33928 13.4353 8.32536 13.366 8.26137 13.3873C8.23046 13.3978 8.20788 13.5309 8.20177 13.5435C8.10804 13.7287 8.15311 13.4679 8.16076 13.4141C8.18901 13.2163 8.09778 13.4337 8.11616 13.3014C8.13435 13.17 8.22638 12.9935 8.17474 12.9816C8.12727 13.0971 8.07708 13.4197 8.02501 13.4597C7.82952 13.6112 7.62585 13.292 7.51279 13.2345C7.4013 13.1774 7.35455 13.1887 7.29896 13.1277C7.19757 13.0171 7.18108 13.2615 7.0774 13.3482C6.97339 13.4348 7.15961 12.8718 7.18068 12.7458C7.20183 12.62 7.15697 12.7435 7.161 12.6724C7.16503 12.6012 7.21613 12.5251 7.19082 12.4914C7.16545 12.4577 7.02121 12.6541 6.97673 12.78C6.88248 13.0467 6.84814 13.3433 6.78964 13.221C6.78631 13.2137 6.84078 13.0671 6.82604 13.0471C6.708 12.8931 6.55129 12.8458 6.43335 12.707C6.41684 12.6876 6.47688 12.5242 6.46773 12.511C6.37222 12.373 6.3451 12.6671 6.19978 12.965C6.31901 12.5501 6.34566 12.2846 6.25214 12.2589C6.19593 12.2432 6.16045 12.4286 6.09204 12.5485C6.07149 12.5847 6.06228 12.4491 6.0338 12.5334C5.94058 12.8088 5.90107 13.133 5.83458 12.9837C5.83176 12.9767 5.88316 12.8261 5.87065 12.8131C5.79044 12.7287 5.70433 13.0196 5.5955 13.0309C5.51031 13.0398 5.41304 12.8261 5.32894 12.775C5.44454 12.3038 5.33213 12.391 5.21896 12.7079C5.16276 12.6803 5.09391 12.6832 5.04672 12.6244C5.03044 12.6043 5.07617 12.4709 5.07718 12.4555C5.09385 12.2147 4.9921 12.525 4.97617 12.5343C4.80402 12.6208 4.75412 12.3554 4.5661 12.5586C4.55942 12.566 4.47436 12.8921 4.49576 12.6444C4.49737 12.6273 4.57619 12.4884 4.51689 12.4622C4.45763 12.436 4.38141 12.2324 4.25829 12.3639C4.22855 12.3955 4.1125 12.6492 4.1183 12.431C4.1192 12.4014 4.14758 12.3088 4.15159 12.2545C4.16395 12.0814 4.07144 12.4095 4.10597 12.1204C4.1407 11.8314 4.12298 11.6046 3.99238 11.7791C3.98831 11.7841 3.90636 12.0421 3.88021 12.0316C3.83852 12.0146 3.78967 11.9454 3.74373 11.9365C3.72172 11.9323 3.69749 12.0988 3.69301 12.1009C3.52494 12.1581 3.45381 11.988 3.30881 11.8875C3.28232 11.8688 3.14595 12.0717 3.12986 11.8823C3.11267 11.6752 3.3615 10.8882 3.17794 11.0467C3.1039 11.1099 2.79517 12.1099 2.81622 11.5594C2.58787 11.6437 2.4659 11.3309 2.21925 11.4696C2.20819 11.4757 2.11279 11.7527 2.09215 11.7438C2.06179 11.73 2.07675 11.5936 2.05665 11.5797C1.97388 11.5181 1.86246 11.6117 1.77683 11.5729C1.74424 11.5585 1.78843 11.4242 1.74951 11.407C1.71056 11.3898 1.64086 11.5639 1.60596 11.4637C1.57973 11.3874 1.62483 11.0086 1.5792 10.9524C1.49114 11.3158 1.45461 11.2992 1.36341 11.3791C1.34583 11.3946 1.33001 11.5246 1.32015 11.5384C1.27935 11.5977 1.28067 11.4872 1.2397 11.5525C1.22978 11.5682 1.20009 11.6924 1.19032 11.7122C1.10612 11.8855 1.10472 11.59 1.10465 11.5386C1.10361 11.3432 1.04558 11.5001 1.02989 11.4195C1.01429 11.3389 1.08506 11.2596 1.05714 11.2064C0.999252 11.0962 0.891738 11.0918 0.811428 11.0666C0.779205 11.0573 0.761874 11.2283 0.756341 11.2309C0.678852 11.2568 0.65256 11.0641 0.535876 11.3853C0.693185 10.5204 0.475183 11.4583 0.418623 11.264C0.414245 11.2483 0.501383 10.8424 0.54504 10.7902C0.588664 10.7381 0.602982 10.8749 0.665762 10.7923C0.680613 10.7729 0.826165 10.4078 0.8391 10.3867C0.940554 10.2216 0.804682 10.8269 0.799887 10.8607C0.749718 11.2268 0.913913 10.8351 0.93815 10.8112C1.04929 10.7013 1.09706 10.8023 1.18566 10.726C1.24369 10.6769 1.34057 10.2823 1.37359 10.3029C1.48186 10.3708 1.39239 10.9321 1.61569 10.4799C1.66338 10.3835 1.74214 9.94577 1.74616 10.3055C1.74639 10.3282 1.73558 10.6539 1.81797 10.4657C1.82834 10.442 1.85789 10.316 1.86635 10.3068C1.92242 10.2478 1.92537 10.3544 1.98004 10.3165C2.0347 10.2787 2.10353 10.2192 2.14268 10.2735C2.16633 10.306 2.14915 10.5497 2.14981 10.6105C2.15093 10.7855 2.25742 10.524 2.23503 10.7303C2.21263 10.9377 2.09218 11.2323 2.1269 11.3778C2.2061 11.051 2.29047 10.7163 2.37156 10.388C2.51528 10.4338 2.63667 10.5739 2.78621 10.5936C2.80486 10.5957 2.82746 10.4154 2.8485 10.4131C2.93707 10.4043 2.97909 10.5465 3.07509 10.5162C3.14955 10.4921 3.26436 10.3224 3.34302 10.2912C3.29636 10.6754 3.42798 10.572 3.49592 10.624C3.51953 10.642 3.4944 10.7417 3.50551 10.7787C3.54791 10.9159 3.59213 10.5771 3.62364 10.5295C3.75842 10.3265 3.5905 11.0775 3.69189 11.0817C3.69721 11.0822 3.8533 10.6974 3.86772 10.6745C3.96043 10.5251 3.8443 10.8157 3.87166 10.8532C3.92156 10.9217 3.94255 11.0273 4.04277 10.9273C4.07211 10.8976 4.1813 10.6606 4.17724 10.8628C4.17674 10.8892 4.14282 11.0206 4.14536 11.0293C4.19397 11.1767 4.29217 10.7621 4.37138 10.6324C4.45094 10.5029 4.45538 10.8061 4.45052 10.892C4.43844 11.1144 4.39993 10.9764 4.39293 10.9968C4.31016 11.2405 4.37245 11.2098 4.40724 11.2402C4.31746 11.6482 4.37863 11.6369 4.44366 11.2701C4.45068 11.23 4.41086 11.2607 4.40724 11.2402C4.53587 10.8494 4.60908 10.8127 4.58833 11.2013C4.57851 11.3834 4.50102 11.5802 4.61349 11.528C4.66445 11.5045 4.71387 11.2207 4.76983 11.1533C4.89767 10.9996 4.94788 11.2872 5.04578 11.267C5.08134 11.2597 5.08651 11.0991 5.11208 11.0888C5.17961 11.0609 5.20457 11.1883 5.27912 11.1438C5.2859 11.1396 5.31076 10.9761 5.32999 10.9785C5.4765 10.9937 5.5746 11.1258 5.71965 11.1637C5.78979 11.182 5.93636 11.1239 6.00413 11.1592C6.1194 11.2188 6.22594 11.4916 6.34748 11.4616C6.42745 11.4429 6.45136 11.279 6.50878 11.1775C6.62 10.9807 6.62947 11.385 6.62855 11.447C6.6285 11.449 6.55855 11.4717 6.57042 11.5618C6.54658 11.7376 6.62768 11.4476 6.62855 11.447C6.62832 11.4871 6.73969 11.5535 6.7711 11.529C6.78824 11.5155 6.81904 11.3622 6.82726 11.358C7.01938 11.2622 7.2017 11.2675 7.34811 11.3807C7.35025 11.3845 7.30225 11.5525 7.30779 11.5594C7.38415 11.6593 7.49864 11.4682 7.60937 11.366C7.72005 11.2639 7.77126 11.3213 7.74094 11.6235C7.81155 11.6031 7.86436 11.7544 7.89307 11.8455C7.92179 11.9365 8.01704 11.6099 8.0232 11.6046C8.21576 11.4337 8.24356 11.643 8.3747 11.7106C8.43687 11.7433 8.58077 11.7323 8.6659 11.7178C8.73229 11.7054 8.74539 11.792 8.81267 11.7583C8.82176 11.7538 8.85615 11.6061 8.85996 11.6012C8.9696 11.4441 8.83876 11.7917 8.83276 11.8588C8.81065 12.1026 8.80194 12.2333 8.90839 12.1465C8.93274 12.1266 9.13286 11.6298 9.17363 11.6093C9.22611 11.5835 9.15652 11.7622 9.21265 11.7305C9.2174 11.728 9.25009 11.6147 9.27522 11.6276C9.38981 11.6851 9.51212 11.7937 9.6451 11.8224C9.66328 11.8268 9.69553 11.6411 9.7228 11.6445C9.85073 11.6609 9.98109 11.7092 10.0704 11.8299C10.0922 11.8602 10.0341 11.979 10.0284 12.018C9.99313 12.2537 10.1544 11.9468 10.1656 11.9437C10.4361 11.8594 10.5022 12.208 10.7667 12.1447C10.7804 12.1403 10.9965 11.8281 10.933 12.1391C10.9291 12.1599 10.8612 12.477 10.9719 12.2833C10.9788 12.2712 11.0094 12.1063 11.0485 12.1384C11.0873 12.1703 11.1977 12.0931 11.1954 12.2862C11.195 12.3471 11.1274 12.664 11.2741 12.4462C11.2834 12.4307 11.5781 11.9244 11.4671 12.3089C11.4487 12.3722 11.2918 12.7638 11.4366 12.5879C11.465 12.5539 11.475 12.4568 11.5313 12.4157C11.6181 12.3523 11.6473 12.4852 11.7828 12.337C11.8064 12.3106 11.963 12.0649 11.9208 12.2823C11.9141 12.3164 11.8495 12.4422 11.8641 12.4651C11.9329 12.5748 12.0707 12.5301 12.1303 12.6614C12.1514 12.7076 12.0441 12.9094 12.0558 12.9809C12.0682 13.0525 12.1169 13.1376 12.1963 13.059C12.2761 12.9803 12.3808 12.6298 12.4504 12.6288C12.754 12.6256 12.9101 12.9342 13.1429 13.086C13.1773 13.1086 13.2054 12.9772 13.2607 13.0025C13.4616 13.0921 13.8708 13.1758 13.9015 13.5135C13.9244 13.7824 13.6728 13.8308 13.7278 13.9669C13.7535 14.0316 14.0207 13.6996 14.0403 13.6958C14.2274 13.6506 14.2109 13.86 14.3445 13.8767C14.3723 13.8802 14.4429 13.7224 14.4657 13.7272C14.5449 13.7424 14.5693 13.8491 14.6362 13.8766C14.6665 13.8886 14.7338 13.7765 14.7529 13.8014C14.7997 13.8597 14.8217 13.9409 14.8089 14.0808C14.8076 14.0934 14.6812 14.2036 14.7202 14.2378C14.7838 14.2931 14.7973 14.4503 14.9476 14.4053C14.9924 14.3914 15.1697 14.1511 15.0978 14.3541C15.0828 14.3966 14.8564 14.6749 15.098 14.4684C15.1373 14.4333 15.4879 14.1742 15.3723 14.4252C15.3419 14.4912 15.1938 14.7474 15.2487 14.7319C15.257 14.7289 15.3408 14.591 15.373 14.5963C15.485 14.6175 15.5573 14.6974 15.67 14.7252C15.7004 14.7325 15.7736 14.5777 15.8158 14.593C15.9328 14.6353 16.0161 14.7621 16.0668 14.876C16.0852 14.9183 15.9725 15.0022 15.9649 15.0154C15.8396 15.2293 16.0788 15.0027 16.1039 14.9995C16.2558 14.9818 16.2085 15.1479 16.3039 15.1813C16.33 15.191 16.424 15.0644 16.4373 15.0577C16.57 14.9954 16.3481 15.1726 16.3511 15.2181C16.3582 15.3457 16.4405 15.4079 16.5214 15.4601C16.5513 15.4791 16.6517 15.3229 16.6772 15.3417C16.831 15.4507 16.9564 15.607 17.0025 15.8055C17.0111 15.8434 16.8936 15.922 16.8747 15.9487C16.7416 16.1342 17.014 15.9813 17.0469 15.9746C17.1953 15.9418 17.1221 16.0458 17.1825 16.08C17.484 16.2502 17.6648 16.6074 17.8038 16.8799C17.9796 17.2261 18.0418 17.553 18.2617 17.8323C18.2757 17.8506 18.4201 17.731 18.4343 17.7456C18.6118 17.941 18.6809 18.1967 18.8532 18.3894C18.8672 18.4056 19.0051 18.2916 19.0328 18.3149C19.0908 18.3623 19.1263 18.4449 19.1115 18.5345C19.1045 18.5779 18.9497 18.6106 18.9453 18.6527C18.9344 18.7503 18.9652 18.8333 19.027 18.8889C19.054 18.913 19.1888 18.7827 19.2116 18.8209C19.3684 19.077 19.5406 19.3509 19.4567 19.7183C19.4512 19.744 19.1277 19.9171 19.2097 19.9262C19.3031 19.8859 19.4113 19.8347 19.5102 19.7897C19.7519 20.1659 19.8045 20.6058 19.9512 21.0185C19.9574 21.036 20.1252 20.9331 20.1383 20.9668C20.2147 21.1628 20.3338 21.3193 20.2283 21.5845C20.218 21.6106 19.895 21.722 19.9646 21.7601C19.9772 21.7667 20.052 21.8361 20.1298 21.8326C20.1414 21.8317 20.2849 21.7601 20.2997 21.7864C20.384 21.9433 20.409 22.119 20.3732 22.3097C20.3671 22.3406 20.1975 22.3701 20.1917 22.3925C20.152 22.5504 20.323 22.6495 20.2198 22.8247C20.1499 22.9419 19.8614 23.0052 19.6025 23.1416C19.566 23.1608 19.5771 23.2142 19.4186 23.2702C19.02 23.4113 18.5731 23.5342 18.1492 23.6875C18.0579 23.7204 18.1791 23.7531 17.9436 23.7885C17.9278 23.7907 17.8381 23.7681 17.7588 23.7819C17.704 23.7914 17.5468 23.8604 17.4746 23.8666C17.4024 23.8728 17.5322 23.809 17.4447 23.8086C17.3562 23.8087 17.1761 23.8829 17.1362 23.8374ZM8.0209 12.2525C8.02298 12.4224 8.18744 11.8472 8.1006 11.9719C8.09621 11.9786 8.02067 12.2442 8.0209 12.2525ZM2.53231 11.0129C2.53161 11.2837 2.66045 10.9154 2.66509 10.7072C2.66968 10.4992 2.53243 10.9308 2.53231 11.0129ZM1.87857 11.0574C1.89927 11.2759 2.10412 10.4527 1.99183 10.6025C1.98536 10.6109 1.87734 11.0447 1.87857 11.0574ZM19.4558 22.9659C19.4485 22.9691 19.4536 23.0079 19.4614 23.0062C19.6477 22.9641 19.6372 22.8861 19.4558 22.9659ZM1.22142 11.1177C1.21683 11.2345 1.31014 11.1205 1.31595 10.9752C1.32065 10.8584 1.22716 10.9723 1.22142 11.1177ZM10.1664 13.5736C10.1642 13.5822 10.1867 13.5985 10.2028 13.5508C10.2544 13.3969 10.2041 13.4279 10.1664 13.5736ZM0.190944 10.8813C0.337616 10.9495 0.266935 11.6532 0.117593 11.5359C0.0905255 11.5146 0.235476 11.3344 0.211568 11.2637C0.167798 11.1348 0.0173929 11.5511 1.26101e-05 11.3043C-0.00294705 11.2592 0.183004 10.8759 0.191447 10.8804C0.191283 10.8807 0.191108 10.881 0.190944 10.8813ZM7.85765 12.9528C7.85647 12.9606 7.89017 12.9776 7.89309 12.9703C7.96265 12.7924 7.8945 12.758 7.85765 12.9528ZM11.4843 14.4799C11.4796 14.4961 11.5514 14.5448 11.5602 14.5317C11.727 14.2657 11.5789 14.1651 11.4843 14.4799ZM5.33054 12.7621C5.24663 12.9384 5.19451 12.949 5.21908 12.7081C5.25528 12.7299 5.29414 12.7412 5.33054 12.7621Z" fill="#001F01"/>
</svg>
