<svg width="16" height="16" viewBox="0 0 16 16" fill="none" xmlns="http://www.w3.org/2000/svg">
<g clip-path="url(#clip0_463_6478)">
<path d="M11.6665 1.27759C10.9158 1.28926 10.1814 1.49882 9.53765 1.8851C8.89385 2.27138 8.36338 2.8207 7.99981 3.47759C7.63624 2.8207 7.10577 2.27138 6.46197 1.8851C5.81817 1.49882 5.08384 1.28926 4.33314 1.27759C3.13644 1.32958 2.00895 1.85309 1.197 2.73374C0.385049 3.6144 -0.0453576 4.7806 -0.000190566 5.97759C-0.000190566 9.00892 3.19048 12.3196 5.86648 14.5643C6.46395 15.0663 7.21938 15.3416 7.99981 15.3416C8.78024 15.3416 9.53566 15.0663 10.1331 14.5643C12.8091 12.3196 15.9998 9.00892 15.9998 5.97759C16.045 4.7806 15.6146 3.6144 14.8026 2.73374C13.9907 1.85309 12.8632 1.32958 11.6665 1.27759ZM9.27648 13.5443C8.91913 13.8452 8.46698 14.0102 7.99981 14.0102C7.53264 14.0102 7.08049 13.8452 6.72314 13.5443C3.29781 10.6703 1.33314 7.91292 1.33314 5.97759C1.28757 5.13407 1.57739 4.30674 2.13938 3.67605C2.70138 3.04537 3.48997 2.66249 4.33314 2.61092C5.17632 2.66249 5.9649 3.04537 6.5269 3.67605C7.0889 4.30674 7.37872 5.13407 7.33314 5.97759C7.33314 6.1544 7.40338 6.32397 7.5284 6.44899C7.65343 6.57402 7.823 6.64425 7.99981 6.64425C8.17662 6.64425 8.34619 6.57402 8.47121 6.44899C8.59624 6.32397 8.66648 6.1544 8.66648 5.97759C8.6209 5.13407 8.91072 4.30674 9.47272 3.67605C10.0347 3.04537 10.8233 2.66249 11.6665 2.61092C12.5097 2.66249 13.2982 3.04537 13.8602 3.67605C14.4222 4.30674 14.712 5.13407 14.6665 5.97759C14.6665 7.91292 12.7018 10.6703 9.27648 13.5416V13.5443Z" fill="#8790B5"/>
<path d="M9.27648 13.5443C8.91913 13.8452 8.46698 14.0102 7.99981 14.0102C7.53264 14.0102 7.08049 13.8452 6.72314 13.5443C3.29781 10.6703 1.33314 7.91292 1.33314 5.97759C1.28757 5.13407 1.57739 4.30674 2.13938 3.67605C2.70138 3.04537 3.48997 2.66249 4.33314 2.61092C5.17632 2.66249 5.9649 3.04537 6.5269 3.67605C7.0889 4.30674 7.37872 5.13407 7.33314 5.97759C7.33314 6.1544 7.40338 6.32397 7.5284 6.44899C7.65343 6.57402 7.823 6.64425 7.99981 6.64425C8.17662 6.64425 8.34619 6.57402 8.47121 6.44899C8.59624 6.32397 8.66648 6.1544 8.66648 5.97759C8.6209 5.13407 8.91072 4.30674 9.47272 3.67605C10.0347 3.04537 10.8233 2.66249 11.6665 2.61092C12.5097 2.66249 13.2982 3.04537 13.8602 3.67605C14.4222 4.30674 14.712 5.13407 14.6665 5.97759C14.6665 7.91292 12.7018 10.6703 9.27648 13.5416V13.5443Z" fill="#8790B5"/>
</g>
<defs>
<clipPath id="clip0_463_6478">
<rect width="16" height="16" fill="white"/>
</clipPath>
</defs>
</svg>
