<svg width="24" height="22" viewBox="0 0 24 22" fill="none" xmlns="http://www.w3.org/2000/svg">
<path d="M0 7.39315C0 7.05134 0 6.70952 0 6.3677C0.0136364 6.30816 0.0313636 6.24906 0.0404545 6.18906C0.0718182 5.97361 0.0904546 5.75543 0.131364 5.54179C0.404545 4.10452 1.06909 2.87634 2.12682 1.86634C3.05091 0.984065 4.14318 0.413156 5.39227 0.14361C5.78364 0.0590648 6.17955 -0.00229884 6.58045 0.00224661C7.09864 0.00770116 7.60955 0.0845193 8.10773 0.226792C9.78273 0.704974 11.0655 1.69497 11.9555 3.19316C11.9727 3.2227 11.9923 3.25088 12.0168 3.28861C12.0432 3.24679 12.0627 3.21725 12.0809 3.18634C12.3991 2.63816 12.7873 2.14543 13.2536 1.71679C14.4123 0.650883 15.7809 0.0817921 17.3514 0.00406479C17.8114 -0.0186625 18.2655 0.0567921 18.7127 0.15861C21.1386 0.70861 23.0514 2.50725 23.7486 4.8927C23.8682 5.30134 23.9591 5.71634 23.9805 6.14406C23.9818 6.16816 23.9936 6.19134 24.0005 6.21543V7.54634C23.9936 7.57406 23.9832 7.60179 23.9809 7.63043C23.9755 7.69906 23.9777 7.76906 23.9695 7.83725C23.8986 8.43134 23.7605 9.00952 23.5686 9.57543C23.245 10.5304 22.7914 11.4232 22.2627 12.2791C21.5577 13.4209 20.7359 14.475 19.8482 15.4791C18.4045 17.1118 16.8241 18.6041 15.1414 19.985C14.0573 20.8745 12.7945 21.2191 11.4005 21.0545C10.4368 20.9404 9.58 20.5654 8.83545 19.9441C7.57273 18.8904 6.36091 17.7813 5.21864 16.5972C4.27591 15.62 3.38682 14.5972 2.58909 13.4972C1.95818 12.6272 1.39045 11.7191 0.936364 10.7432C0.462727 9.72725 0.122273 8.67452 0.0368182 7.54952C0.0327273 7.49679 0.0127273 7.44497 0 7.3927V7.39315Z" fill="#1D222B"/>
</svg>
