<svg width="24" height="24" viewBox="0 0 24 24" fill="none" xmlns="http://www.w3.org/2000/svg">
<path d="M15.536 1.4625L23.121 9.05305C23.4006 9.331 23.6222 9.66171 23.7731 10.026C23.924 10.3903 24.0011 10.781 24 11.1753V20.9982C24 21.7943 23.6839 22.5578 23.1213 23.1208C22.5587 23.6837 21.7956 24 21 24H16.433C15.6416 24 15 23.3584 15 22.567V21.9988V18.0624C15 17.2663 14.6839 16.5028 14.1213 15.9399C13.5587 15.3769 12.7957 15.0606 12 15.0606C11.2044 15.0606 10.4413 15.3769 9.87868 15.9399C9.31608 16.5028 9 17.2663 9 18.0624V21.9988V22.567C9 23.3584 8.35841 24 7.56696 24H3.00001C2.20436 24 1.4413 23.6837 0.878696 23.1208C0.316088 22.5578 1.20794e-05 21.7943 1.20794e-05 20.9982V11.1753C-0.0011104 10.781 0.0760076 10.3903 0.226895 10.026C0.377782 9.66171 0.599442 9.331 0.879016 9.05305L8.464 1.4625C9.40275 0.52593 10.6743 0 12 0C13.3257 0 14.5972 0.52593 15.536 1.4625Z" fill="#1D222B"/>
</svg>
