<svg width="24" height="24" viewBox="0 0 24 24" fill="none" xmlns="http://www.w3.org/2000/svg">
<g clip-path="url(#clip0_250_465)">
<path fill-rule="evenodd" clip-rule="evenodd" d="M15.536 1.48311L23.121 9.06911C23.4006 9.3469 23.6222 9.67741 23.7731 10.0415C23.924 10.4056 24.0011 10.796 24 11.1901V21.0071C24 21.8028 23.6839 22.5658 23.1213 23.1284C22.5587 23.691 21.7957 24.0071 21 24.0071H16.433C15.6416 24.0071 15 23.3655 15 22.5741V22.0071V18.0731C15 17.2775 14.6839 16.5144 14.1213 15.9518C13.5587 15.3892 12.7957 15.0731 12 15.0731C11.2044 15.0731 10.4413 15.3892 9.87869 15.9518C9.31608 16.5144 9.00001 17.2775 9.00001 18.0731V22.0071V22.5741C9.00001 23.3655 8.35842 24.0071 7.56698 24.0071H3.00001C2.20436 24.0071 1.4413 23.691 0.878692 23.1284C0.316083 22.5658 1.20795e-05 21.8028 1.20795e-05 21.0071V11.1901C-0.0011104 10.796 0.0760072 10.4056 0.226895 10.0415C0.377782 9.67741 0.599437 9.3469 0.879012 9.06911L8.46401 1.48311C9.40277 0.5471 10.6744 0.0214844 12 0.0214844C13.3257 0.0214844 14.5973 0.5471 15.536 1.48311ZM21.7071 21.7142C21.8947 21.5267 22 21.2723 22 21.0071V11.1901C21.9983 10.9261 21.8931 10.6734 21.707 10.4861L14.122 2.90011C13.5583 2.33904 12.7953 2.02405 12 2.02405C11.2047 2.02405 10.4417 2.33904 9.87801 2.90011L2.29301 10.4831C2.1062 10.6711 2.00094 10.9251 2.00001 11.1901V21.0071C2.00001 21.2723 2.10537 21.5267 2.29291 21.7142C2.48044 21.9018 2.7348 22.0071 3.00001 22.0071H7.00001V18.0731C7.00001 16.747 7.5268 15.4753 8.46448 14.5376C9.40216 13.5999 10.6739 13.0731 12 13.0731C13.3261 13.0731 14.5979 13.5999 15.5355 14.5376C16.4732 15.4753 17 16.747 17 18.0731V22.0071H21C21.2652 22.0071 21.5196 21.9018 21.7071 21.7142Z" fill="#A5A9BE"/>
</g>
<defs>
<clipPath id="clip0_250_465">
<rect width="24" height="24" fill="white"/>
</clipPath>
</defs>
</svg>
