<svg width="24" height="24" viewBox="0 0 24 24" fill="none" xmlns="http://www.w3.org/2000/svg">
<path d="M17.2171 1.54785C16.15 1.56446 15.1062 1.86246 14.191 2.41178C13.2758 2.96109 12.5218 3.74226 12.005 4.6764C11.4882 3.74226 10.7341 2.96109 9.81893 2.41178C8.90378 1.86246 7.85994 1.56446 6.79282 1.54785C5.09171 1.62179 3.48899 2.36626 2.3348 3.6186C1.18062 4.87095 0.568801 6.52938 0.633006 8.23157C0.633006 12.5423 5.16852 17.2503 8.97245 20.4424C9.82176 21.1564 10.8956 21.5479 12.005 21.5479C13.1143 21.5479 14.1882 21.1564 15.0375 20.4424C18.8414 17.2503 23.3769 12.5423 23.3769 8.23157C23.4411 6.52938 22.8293 4.87095 21.6751 3.6186C20.521 2.36626 18.9182 1.62179 17.2171 1.54785ZM13.8197 18.9919C13.3118 19.4198 12.669 19.6545 12.005 19.6545C11.3409 19.6545 10.6982 19.4198 10.1902 18.9919C5.3211 14.9049 2.52833 10.9838 2.52833 8.23157C2.46355 7.03203 2.87552 5.85552 3.6744 4.95864C4.47328 4.06176 5.59425 3.51727 6.79282 3.44394C7.99139 3.51727 9.11236 4.06176 9.91124 4.95864C10.7101 5.85552 11.1221 7.03203 11.0573 8.23157C11.0573 8.48301 11.1571 8.72415 11.3349 8.90194C11.5126 9.07974 11.7536 9.17962 12.005 9.17962C12.2563 9.17962 12.4973 9.07974 12.6751 8.90194C12.8528 8.72415 12.9526 8.48301 12.9526 8.23157C12.8878 7.03203 13.2998 5.85552 14.0987 4.95864C14.8976 4.06176 16.0185 3.51727 17.2171 3.44394C18.4157 3.51727 19.5367 4.06176 20.3355 4.95864C21.1344 5.85552 21.5464 7.03203 21.4816 8.23157C21.4816 10.9838 18.6888 14.9049 13.8197 18.9881V18.9919Z" fill="#EF527A"/>
<path d="M13.8197 18.9919C13.3118 19.4198 12.669 19.6545 12.005 19.6545C11.3409 19.6545 10.6982 19.4198 10.1902 18.9919C5.3211 14.9049 2.52833 10.9838 2.52833 8.23157C2.46355 7.03203 2.87552 5.85552 3.6744 4.95864C4.47328 4.06176 5.59425 3.51727 6.79282 3.44394C7.99139 3.51727 9.11236 4.06176 9.91124 4.95864C10.7101 5.85552 11.1221 7.03203 11.0573 8.23157C11.0573 8.48301 11.1571 8.72415 11.3349 8.90194C11.5126 9.07974 11.7536 9.17962 12.005 9.17962C12.2563 9.17962 12.4973 9.07974 12.6751 8.90194C12.8528 8.72415 12.9526 8.48301 12.9526 8.23157C12.8878 7.03203 13.2998 5.85552 14.0987 4.95864C14.8976 4.06176 16.0185 3.51727 17.2171 3.44394C18.4157 3.51727 19.5367 4.06176 20.3355 4.95864C21.1344 5.85552 21.5464 7.03203 21.4816 8.23157C21.4816 10.9838 18.6888 14.9049 13.8197 18.9881V18.9919Z" fill="#EF527A"/>
</svg>
