<svg width="24" height="24" viewBox="0 0 24 24" fill="none" xmlns="http://www.w3.org/2000/svg">
<path d="M17.2166 1.54785C16.1495 1.56446 15.1057 1.86246 14.1905 2.41178C13.2754 2.96109 12.5213 3.74226 12.0045 4.6764C11.4877 3.74226 10.7336 2.96109 9.81845 2.41178C8.90329 1.86246 7.85945 1.56446 6.79233 1.54785C5.09122 1.62179 3.4885 2.36626 2.33432 3.6186C1.18013 4.87095 0.568313 6.52938 0.632517 8.23157C0.632517 12.5423 5.16804 17.2503 8.97196 20.4424C9.82127 21.1564 10.8951 21.5479 12.0045 21.5479C13.1139 21.5479 14.1877 21.1564 15.037 20.4424C18.8409 17.2503 23.3764 12.5423 23.3764 8.23157C23.4406 6.52938 22.8288 4.87095 21.6746 3.6186C20.5205 2.36626 18.9177 1.62179 17.2166 1.54785ZM13.8193 18.9919C13.3113 19.4198 12.6686 19.6545 12.0045 19.6545C11.3404 19.6545 10.6977 19.4198 10.1897 18.9919C5.32061 14.9049 2.52784 10.9838 2.52784 8.23157C2.46306 7.03203 2.87504 5.85552 3.67391 4.95864C4.47279 4.06176 5.59376 3.51727 6.79233 3.44394C7.9909 3.51727 9.11187 4.06176 9.91075 4.95864C10.7096 5.85552 11.1216 7.03203 11.0568 8.23157C11.0568 8.48301 11.1567 8.72415 11.3344 8.90194C11.5121 9.07974 11.7531 9.17962 12.0045 9.17962C12.2558 9.17962 12.4969 9.07974 12.6746 8.90194C12.8523 8.72415 12.9521 8.48301 12.9521 8.23157C12.8874 7.03203 13.2993 5.85552 14.0982 4.95864C14.8971 4.06176 16.0181 3.51727 17.2166 3.44394C18.4152 3.51727 19.5362 4.06176 20.335 4.95864C21.1339 5.85552 21.5459 7.03203 21.4811 8.23157C21.4811 10.9838 18.6884 14.9049 13.8193 18.9881V18.9919Z" fill="#8790B5"/>
</svg>
