<svg width="24" height="24" viewBox="0 0 24 24" fill="none" xmlns="http://www.w3.org/2000/svg">
<path d="M16.5815 3.21008C15.6435 3.22468 14.726 3.48663 13.9215 3.96948C13.1171 4.45232 12.4543 5.13897 12 5.96008C11.5457 5.13897 10.8829 4.45232 10.0785 3.96948C9.27405 3.48663 8.35651 3.22468 7.41852 3.21008C5.92324 3.27508 4.51444 3.92946 3.49991 5.03028C2.48539 6.13109 1.9476 7.58885 2.00403 9.08508C2.00403 12.8742 5.99076 17.0126 9.33441 19.8184C10.081 20.446 11.0249 20.7901 12 20.7901C12.9751 20.7901 13.919 20.446 14.6656 19.8184C18.0092 17.0126 21.996 12.8742 21.996 9.08508C22.0524 7.58885 21.5146 6.13109 20.5001 5.03028C19.4856 3.92946 18.0768 3.27508 16.5815 3.21008ZM13.5952 18.5434C13.1487 18.9196 12.5837 19.1258 12 19.1258C11.4163 19.1258 10.8513 18.9196 10.4048 18.5434C6.12487 14.9509 3.67003 11.5042 3.67003 9.08508C3.61308 8.03068 3.97521 6.99652 4.67742 6.20817C5.37964 5.41981 6.36497 4.94121 7.41852 4.87675C8.47206 4.94121 9.45739 5.41981 10.1596 6.20817C10.8618 6.99652 11.2239 8.03068 11.167 9.08508C11.167 9.3061 11.2548 9.51806 11.411 9.67434C11.5672 9.83062 11.7791 9.91842 12 9.91842C12.2209 9.91842 12.4328 9.83062 12.589 9.67434C12.7452 9.51806 12.833 9.3061 12.833 9.08508C12.7761 8.03068 13.1382 6.99652 13.8404 6.20817C14.5426 5.41981 15.5279 4.94121 16.5815 4.87675C17.635 4.94121 18.6204 5.41981 19.3226 6.20817C20.0248 6.99652 20.3869 8.03068 20.33 9.08508C20.33 11.5042 17.8751 14.9509 13.5952 18.5401V18.5434Z" fill="#757A97"/>
</svg>
