<svg width="43" height="43" viewBox="0 0 43 43" fill="none" xmlns="http://www.w3.org/2000/svg">
<g filter="url(#filter0_d_5014_15005)">
<rect x="3.11108" y="3.11133" width="36" height="36" rx="18" fill="#006337" shape-rendering="crispEdges"/>
<path d="M21.1111 29.3613C23.2991 29.3613 25.3975 28.4921 26.9447 26.945C28.4919 25.3978 29.3611 23.2994 29.3611 21.1113H12.8611C12.8611 23.2994 13.7303 25.3978 15.2775 26.945C16.8246 28.4921 18.923 29.3613 21.1111 29.3613Z" fill="white" stroke="white" stroke-width="1.83333" stroke-linecap="round" stroke-linejoin="round"/>
<path d="M16.5278 29.3613H25.6945" stroke="white" stroke-width="1.83333" stroke-linecap="round" stroke-linejoin="round"/>
<path d="M27.9861 21.1113L30.2778 15.6113" stroke="white" stroke-width="1.83333" stroke-linecap="round" stroke-linejoin="round"/>
<path d="M25.0068 12.8613C25.2543 12.953 25.7402 13.3472 25.6943 14.108C25.6393 14.8688 24.8418 15.208 24.7777 15.9597C24.7318 16.6747 25.0893 17.0963 25.4468 17.4447" stroke="white" stroke-width="1.83333" stroke-linecap="round" stroke-linejoin="round"/>
<path d="M20.4236 12.8613C20.6711 12.953 21.157 13.3472 21.102 14.108C21.0561 14.8688 20.2495 15.208 20.2036 15.9597C20.1486 16.6747 20.5061 17.0963 20.8636 17.4447" stroke="white" stroke-width="1.83333" stroke-linecap="round" stroke-linejoin="round"/>
<path d="M15.8403 12.8613C16.0878 12.953 16.5737 13.3472 16.5278 14.108C16.4728 14.8688 15.6753 15.208 15.6112 15.9597C15.5653 16.6747 15.9228 17.0963 16.2895 17.4447" stroke="white" stroke-width="1.83333" stroke-linecap="round" stroke-linejoin="round"/>
</g>
<defs>
<filter id="filter0_d_5014_15005" x="-2.71797e-05" y="0.000216961" width="42.2222" height="42.2222" filterUnits="userSpaceOnUse" color-interpolation-filters="sRGB">
<feFlood flood-opacity="0" result="BackgroundImageFix"/>
<feColorMatrix in="SourceAlpha" type="matrix" values="0 0 0 0 0 0 0 0 0 0 0 0 0 0 0 0 0 0 127 0" result="hardAlpha"/>
<feOffset/>
<feGaussianBlur stdDeviation="1.55556"/>
<feComposite in2="hardAlpha" operator="out"/>
<feColorMatrix type="matrix" values="0 0 0 0 1 0 0 0 0 1 0 0 0 0 1 0 0 0 0.65 0"/>
<feBlend mode="normal" in2="BackgroundImageFix" result="effect1_dropShadow_5014_15005"/>
<feBlend mode="normal" in="SourceGraphic" in2="effect1_dropShadow_5014_15005" result="shape"/>
</filter>
</defs>
</svg>
