<svg width="40" height="40" viewBox="0 0 40 40" fill="none" xmlns="http://www.w3.org/2000/svg">
<path d="M2.5 14.5C2.5 10.2996 2.5 8.19941 3.31745 6.59507C4.0365 5.18386 5.18386 4.0365 6.59507 3.31745C8.19941 2.5 10.2996 2.5 14.5 2.5H25.5C29.7004 2.5 31.8006 2.5 33.4049 3.31745C34.8161 4.0365 35.9635 5.18386 36.6825 6.59507C37.5 8.19941 37.5 10.2996 37.5 14.5V25.5C37.5 29.7004 37.5 31.8006 36.6825 33.4049C35.9635 34.8161 34.8161 35.9635 33.4049 36.6825C31.8006 37.5 29.7004 37.5 25.5 37.5H14.5C10.2996 37.5 8.19941 37.5 6.59507 36.6825C5.18386 35.9635 4.0365 34.8161 3.31745 33.4049C2.5 31.8006 2.5 29.7004 2.5 25.5V14.5Z" fill="url(#paint0_linear_1538_3188)"/>
<path d="M20 28.75C26.2132 28.75 31.25 24.5527 31.25 19.375C31.25 14.1973 26.2132 10 20 10C13.7868 10 8.75 14.1973 8.75 19.375C8.75 22.6569 10.7736 25.5449 13.8377 27.2198C13.7352 28.0534 13.4268 29.1658 12.5 30C14.2526 29.6845 15.6514 29.0506 16.6963 28.3393C17.741 28.6063 18.8503 28.75 20 28.75Z" fill="white"/>
<defs>
<linearGradient id="paint0_linear_1538_3188" x1="20" y1="2.5" x2="20" y2="37.5" gradientUnits="userSpaceOnUse">
<stop stop-color="#5AF575"/>
<stop offset="1" stop-color="#13BD2C"/>
</linearGradient>
</defs>
</svg>
