<svg width="24" height="24" viewBox="0 0 24 24" fill="none" xmlns="http://www.w3.org/2000/svg">
<g clip-path="url(#clip0_1498_6160)">
<path d="M17.3831 2.34513L2.74752 7.34995C2.19335 7.5389 1.72567 7.8917 1.39986 8.36658C1.07405 8.84146 0.903756 9.41854 0.909132 10.0295C0.914509 10.6405 1.09533 11.2597 1.4302 11.814C1.76506 12.3682 2.23994 12.8342 2.79862 13.1568L7.74175 16.0531L10.4421 21.1183C10.7441 21.6926 11.1946 22.1879 11.7398 22.545C12.285 22.9021 12.9016 23.1057 13.5158 23.1316C14.3068 23.1661 15.0446 22.9038 15.5863 22.3956C15.8698 22.121 16.0889 21.7854 16.231 21.408L21.7592 6.91351C21.9726 6.347 22.0045 5.70749 21.851 5.07566C21.6975 4.44382 21.3655 3.84796 20.8967 3.36326C20.428 2.87856 19.8436 2.52673 19.2173 2.35216C18.5909 2.17758 17.9507 2.18809 17.3774 2.38234L17.3831 2.34513ZM14.2272 20.386C14.158 20.5682 14.0353 20.7197 13.8736 20.8227C13.712 20.9257 13.5181 20.976 13.3149 20.9675C13.1203 20.9561 12.9255 20.8913 12.7519 20.7802C12.5783 20.6691 12.4323 20.5159 12.3299 20.3373L9.81225 15.6336L19.6821 6.08902L14.2272 20.386ZM8.23036 13.9978L3.62373 11.3776C3.4486 11.2693 3.30039 11.1183 3.19518 10.941C3.08996 10.7637 3.03176 10.5669 3.02688 10.372C3.01644 10.2258 3.03586 10.0829 3.08394 9.95204C3.13201 9.82117 3.20774 9.7051 3.30644 9.61097C3.40301 9.518 3.51987 9.44805 3.65007 9.40529L18.1002 4.45322L8.23036 13.9978Z" fill="#E5E7EF"/>
</g>
<defs>
<clipPath id="clip0_1498_6160">
<rect width="24" height="24" fill="white"/>
</clipPath>
</defs>
</svg>
