<svg width="32" height="32" viewBox="0 0 32 32" fill="none" xmlns="http://www.w3.org/2000/svg">
<rect width="32" height="32" rx="8" fill="#F8F8FB" fill-opacity="0.15"/>
<path d="M12.884 21.176C12.116 21.176 11.444 20.952 10.868 20.504C10.292 20.056 9.84933 19.416 9.54 18.584C9.23067 17.7413 9.076 16.7333 9.076 15.56C9.076 14.408 9.23067 13.4107 9.54 12.568C9.84933 11.7253 10.292 11.08 10.868 10.632C11.444 10.1733 12.116 9.944 12.884 9.944C13.6627 9.944 14.3347 10.1733 14.9 10.632C15.476 11.08 15.9187 11.7253 16.228 12.568C16.5373 13.4107 16.692 14.408 16.692 15.56C16.692 16.7333 16.5373 17.7413 16.228 18.584C15.9187 19.416 15.476 20.056 14.9 20.504C14.3347 20.952 13.6627 21.176 12.884 21.176ZM12.884 19.384C13.3427 19.384 13.7107 19.2133 13.988 18.872C14.2653 18.5307 14.468 18.072 14.596 17.496C14.7347 16.9093 14.804 16.264 14.804 15.56C14.804 14.9307 14.7347 14.3227 14.596 13.736C14.468 13.1493 14.2653 12.6747 13.988 12.312C13.7107 11.9387 13.3427 11.752 12.884 11.752C12.4147 11.752 12.036 11.9387 11.748 12.312C11.46 12.6747 11.252 13.1493 11.124 13.736C11.0067 14.3227 10.948 14.9307 10.948 15.56C10.948 16.264 11.0067 16.9093 11.124 17.496C11.252 18.072 11.46 18.5307 11.748 18.872C12.036 19.2133 12.4147 19.384 12.884 19.384ZM19.7776 11.864L20.4496 12.248C20.375 12.44 20.2256 12.632 20.0016 12.824C19.7883 13.016 19.495 13.176 19.1216 13.304C18.759 13.4213 18.3163 13.48 17.7936 13.48V11.72C18.231 11.72 18.615 11.656 18.9456 11.528C19.287 11.3893 19.5696 11.1973 19.7936 10.952C20.0283 10.7067 20.199 10.424 20.3056 10.104H21.6336V21H19.7776V11.864Z" fill="#E5E7EF"/>
</svg>
