<svg width="20" height="20" viewBox="0 0 20 20" fill="none" xmlns="http://www.w3.org/2000/svg">
<path d="M14.3476 1.28906C13.4583 1.3029 12.5884 1.55124 11.8258 2.009C11.0632 2.46676 10.4348 3.11774 10.0041 3.89619C9.57341 3.11774 8.94503 2.46676 8.1824 2.009C7.41977 1.55124 6.5499 1.3029 5.66064 1.28906C4.24304 1.35068 2.90744 1.97107 1.94562 3.01469C0.983806 4.05831 0.473955 5.44034 0.527459 6.85883C0.527459 10.4511 4.30706 14.3745 7.47699 17.0345C8.18475 17.6295 9.07961 17.9557 10.0041 17.9557C10.9286 17.9557 11.8234 17.6295 12.5312 17.0345C15.7011 14.3745 19.4807 10.4511 19.4807 6.85883C19.5342 5.44034 19.0244 4.05831 18.0626 3.01469C17.1007 1.97107 15.7651 1.35068 14.3476 1.28906ZM11.5164 15.8258C11.0931 16.1824 10.5575 16.3779 10.0041 16.3779C9.4507 16.3779 8.91509 16.1824 8.49178 15.8258C4.4342 12.4199 2.1069 9.15231 2.1069 6.85883C2.05291 5.85921 2.39622 4.87878 3.06196 4.13138C3.72769 3.38398 4.66183 2.93025 5.66064 2.86914C6.65945 2.93025 7.59359 3.38398 8.25932 4.13138C8.92505 4.87878 9.26836 5.85921 9.21438 6.85883C9.21438 7.06836 9.29758 7.26931 9.44568 7.41747C9.59378 7.56563 9.79465 7.64887 10.0041 7.64887C10.2135 7.64887 10.4144 7.56563 10.5625 7.41747C10.7106 7.26931 10.7938 7.06836 10.7938 6.85883C10.7398 5.85921 11.0831 4.87878 11.7489 4.13138C12.4146 3.38398 13.3487 2.93025 14.3476 2.86914C15.3464 2.93025 16.2805 3.38398 16.9462 4.13138C17.612 4.87878 17.9553 5.85921 17.9013 6.85883C17.9013 9.15231 15.574 12.4199 11.5164 15.8226V15.8258Z" fill="#F8F8FB"/>
</svg>
