<svg width="20" height="20" viewBox="0 0 20 20" fill="none" xmlns="http://www.w3.org/2000/svg">
<path d="M10 1.66602C8.90565 1.66602 7.82201 1.88156 6.81097 2.30035C5.79992 2.71914 4.88126 3.33297 4.10744 4.10679C2.54464 5.6696 1.66666 7.78921 1.66666 9.99935C1.65938 11.9236 2.32566 13.7898 3.55 15.2743L1.88333 16.941C1.7677 17.0582 1.68937 17.207 1.65822 17.3687C1.62708 17.5303 1.64451 17.6976 1.70833 17.8493C1.77754 17.9993 1.88975 18.1253 2.0307 18.2113C2.17165 18.2974 2.335 18.3396 2.5 18.3327H10C12.2101 18.3327 14.3297 17.4547 15.8926 15.8919C17.4554 14.3291 18.3333 12.2095 18.3333 9.99935C18.3333 7.78921 17.4554 5.6696 15.8926 4.10679C14.3297 2.54399 12.2101 1.66602 10 1.66602ZM10 16.666H4.50833L5.28333 15.891C5.43854 15.7349 5.52566 15.5237 5.52566 15.3035C5.52566 15.0834 5.43854 14.8722 5.28333 14.716C4.19215 13.626 3.51264 12.1915 3.36057 10.6567C3.2085 9.12189 3.59328 7.58185 4.44935 6.29895C5.30542 5.01605 6.57982 4.06965 8.05542 3.62099C9.53103 3.17234 11.1165 3.24919 12.5418 3.83844C13.9671 4.4277 15.144 5.49291 15.872 6.85259C16.6 8.21227 16.8341 9.7823 16.5343 11.2952C16.2345 12.8081 15.4194 14.1702 14.2279 15.1495C13.0365 16.1289 11.5423 16.6648 10 16.666Z" fill="#F8F8FB"/>
</svg>
