<svg width="32" height="32" viewBox="0 0 32 32" fill="none" xmlns="http://www.w3.org/2000/svg">
<rect width="32" height="32" rx="16" fill="#E5E7EF"/>
<path fill-rule="evenodd" clip-rule="evenodd" d="M15.9994 22.5017C15.7342 22.5017 15.4799 22.3963 15.2923 22.2088C15.1048 22.0212 14.9994 21.7669 14.9994 21.5017C14.9994 21.2365 15.1048 20.9821 15.2923 20.7946C15.4799 20.607 15.7342 20.5017 15.9994 20.5017C16.2646 20.5017 16.519 20.607 16.7065 20.7946C16.8941 20.9821 16.9994 21.2365 16.9994 21.5017C16.9994 21.7669 16.8941 22.0212 16.7065 22.2088C16.519 22.3963 16.2646 22.5017 15.9994 22.5017ZM13.9994 13.5017C13.9994 13.7669 13.8941 14.0212 13.7065 14.2088C13.519 14.3963 13.2646 14.5017 12.9994 14.5017C12.7342 14.5017 12.4799 14.3963 12.2923 14.2088C12.1048 14.0212 11.9994 13.7669 11.9994 13.5017C11.9994 13.2365 12.1048 12.9821 12.2923 12.7946C12.4799 12.607 12.7342 12.5017 12.9994 12.5017C13.2646 12.5017 13.519 12.607 13.7065 12.7946C13.8941 12.9821 13.9994 13.2365 13.9994 13.5017Z" fill="#777A80"/>
<path fill-rule="evenodd" clip-rule="evenodd" d="M19.8894 12.5497C19.7181 11.8344 19.3514 11.1808 18.8304 10.6617C18.3093 10.1426 17.6543 9.77835 16.9384 9.60967C16.3427 9.46667 15.7222 9.46222 15.1245 9.59668C14.5269 9.73113 13.968 10.0009 13.4909 10.3852C13.0139 10.7696 12.6314 11.2582 12.3728 11.8136C12.1142 12.3689 11.9865 12.9762 11.9994 13.5887C12.0022 13.5916 12.0052 13.5943 12.0084 13.5967L13.8864 13.6187L13.9984 13.5027C13.9987 12.9721 14.2096 12.4632 14.5848 12.088C14.96 11.7128 15.4688 11.5019 15.9994 11.5017C17.1024 11.5017 17.9994 12.3987 17.9994 13.5017C17.9994 14.6037 17.1024 15.5017 15.9994 15.5017H16.0074C15.7448 15.5022 15.4929 15.606 15.3062 15.7907C15.1194 15.9753 15.0128 16.2261 15.0094 16.4887V18.5027C15.0094 18.7679 15.1148 19.0222 15.3023 19.2098C15.4899 19.3973 15.7442 19.5027 16.0094 19.5027C16.2746 19.5027 16.529 19.3973 16.7165 19.2098C16.9041 19.0222 17.0094 18.7679 17.0094 18.5027V17.7207C17.0094 17.5037 17.1544 17.3217 17.3584 17.2487C18.2858 16.9159 19.0573 16.2518 19.5244 15.3842C19.9915 14.5167 20.1211 13.5071 19.8884 12.5497" fill="#777A80"/>
</svg>
