<svg width="16" height="16" viewBox="0 0 16 16" fill="none" xmlns="http://www.w3.org/2000/svg">
<rect width="16" height="16" rx="8" fill="#EB0101"/>
<path d="M10.6821 4.43219C10.9261 4.18869 11.3219 4.18876 11.5659 4.43219C11.81 4.67626 11.81 5.07287 11.5659 5.31696L8.8833 7.9986L11.5659 10.6822C11.8098 10.9262 11.8097 11.3219 11.5659 11.566C11.3219 11.81 10.9262 11.8099 10.6821 11.566L7.99854 8.88336L5.31689 11.566C5.07283 11.8101 4.67622 11.81 4.43213 11.566C4.18885 11.3219 4.18848 10.926 4.43213 10.6822L7.11475 7.9986L4.43213 5.31696C4.1885 5.07284 4.1882 4.67612 4.43213 4.43219C4.67607 4.18827 5.07279 4.18855 5.31689 4.43219L7.99854 7.11481L10.6821 4.43219Z" fill="white"/>
</svg>
