<svg width="24" height="24" viewBox="0 0 24 24" fill="none" xmlns="http://www.w3.org/2000/svg">
<g clip-path="url(#clip0_761_5828)">
<path d="M17.3831 2.34488L2.74752 7.34971C2.19335 7.53866 1.72567 7.89146 1.39986 8.36634C1.07405 8.84122 0.903756 9.4183 0.909132 10.0293C0.914509 10.6402 1.09533 11.2595 1.4302 11.8137C1.76506 12.368 2.23994 12.834 2.79862 13.1566L7.74175 16.0529L10.4421 21.118C10.7441 21.6923 11.1946 22.1877 11.7398 22.5448C12.285 22.9018 12.9016 23.1055 13.5158 23.1313C14.3068 23.1658 15.0446 22.9036 15.5863 22.3953C15.8698 22.1207 16.0889 21.7851 16.231 21.4078L21.7592 6.91327C21.9726 6.34676 22.0045 5.70725 21.851 5.07541C21.6975 4.44358 21.3655 3.84772 20.8967 3.36302C20.428 2.87832 19.8436 2.52649 19.2173 2.35191C18.5909 2.17734 17.9507 2.18784 17.3774 2.3821L17.3831 2.34488ZM14.2272 20.3858C14.158 20.5679 14.0353 20.7194 13.8736 20.8225C13.712 20.9255 13.5181 20.9757 13.3149 20.9672C13.1203 20.9558 12.9255 20.8911 12.7519 20.78C12.5783 20.6689 12.4323 20.5157 12.3299 20.337L9.81225 15.6334L19.6821 6.08877L14.2272 20.3858ZM8.23036 13.9976L3.62373 11.3773C3.4486 11.269 3.30039 11.118 3.19518 10.9407C3.08996 10.7635 3.03176 10.5667 3.02688 10.3717C3.01644 10.2256 3.03586 10.0827 3.08394 9.9518C3.13201 9.82092 3.20774 9.70485 3.30644 9.61073C3.40301 9.51776 3.51987 9.44781 3.65007 9.40505L18.1002 4.45297L8.23036 13.9976Z" fill="#757A97"/>
</g>
<defs>
<clipPath id="clip0_761_5828">
<rect width="24" height="24" fill="white"/>
</clipPath>
</defs>
</svg>
