<svg width="40" height="40" viewBox="0 0 40 40" fill="none" xmlns="http://www.w3.org/2000/svg">
<rect width="40" height="40" rx="20" fill="#E5E7EF"/>
<path d="M20.2498 18.88C22.4144 18.88 24.1691 17.1253 24.1691 14.9608C24.1691 12.7962 22.4144 11.0415 20.2498 11.0415C18.0853 11.0415 16.3306 12.7962 16.3306 14.9608C16.3306 17.1253 18.0853 18.88 20.2498 18.88Z" stroke="#757A97" stroke-width="1.67969" stroke-miterlimit="10"/>
<path d="M26.023 22.2393H14.4776C13.6458 22.2393 12.9717 22.9334 12.9717 23.7897V24.4099C12.9717 26.7904 15.9213 28.958 20.2503 28.958C24.5794 28.958 27.529 26.7904 27.529 24.4099V23.7897C27.529 22.9334 26.8548 22.2393 26.023 22.2393Z" stroke="#757A97" stroke-width="1.67969" stroke-miterlimit="10"/>
</svg>
