<svg width="36" height="36" viewBox="0 0 36 36" fill="none" xmlns="http://www.w3.org/2000/svg">
<rect width="36" height="36" rx="18" fill="#006337"/>
<rect x="1.25" y="1.25" width="33.5" height="33.5" rx="16.75" stroke="white" stroke-opacity="0.2" stroke-width="2.5"/>
<g clip-path="url(#clip0_5032_15078)">
<path d="M21.4374 11.6982C20.7336 11.7092 20.0451 11.9057 19.4416 12.2678C18.838 12.6299 18.3407 13.1449 17.9999 13.7607C17.659 13.1449 17.1617 12.6299 16.5581 12.2678C15.9546 11.9057 15.2661 11.7092 14.5624 11.6982C13.4404 11.747 12.3834 12.2378 11.6222 13.0634C10.861 13.889 10.4575 14.9823 10.4999 16.1045C10.4999 18.9464 13.4911 22.0501 15.9999 24.1545C16.56 24.6252 17.2682 24.8833 17.9999 24.8833C18.7315 24.8833 19.4397 24.6252 19.9999 24.1545C22.5086 22.0501 25.4999 18.9464 25.4999 16.1045C25.5422 14.9823 25.1387 13.889 24.3775 13.0634C23.6163 12.2378 22.5593 11.747 21.4374 11.6982ZM19.1967 23.1982C18.8617 23.4804 18.4378 23.6351 17.9999 23.6351C17.5619 23.6351 17.138 23.4804 16.803 23.1982C13.5917 20.5039 11.7499 17.9189 11.7499 16.1045C11.7071 15.3137 11.9788 14.5381 12.5057 13.9468C13.0326 13.3555 13.7719 12.9966 14.5624 12.9482C15.3528 12.9966 16.0921 13.3555 16.619 13.9468C17.1459 14.5381 17.4176 15.3137 17.3749 16.1045C17.3749 16.2703 17.4407 16.4292 17.5579 16.5464C17.6751 16.6636 17.8341 16.7295 17.9999 16.7295C18.1656 16.7295 18.3246 16.6636 18.4418 16.5464C18.559 16.4292 18.6249 16.2703 18.6249 16.1045C18.5821 15.3137 18.8538 14.5381 19.3807 13.9468C19.9076 13.3555 20.6469 12.9966 21.4374 12.9482C22.2278 12.9966 22.9671 13.3555 23.494 13.9468C24.0209 14.5381 24.2926 15.3137 24.2499 16.1045C24.2499 17.9189 22.408 20.5039 19.1967 23.1957V23.1982Z" fill="#F8F8FB"/>
<path d="M19.1967 23.1982C18.8617 23.4804 18.4378 23.6351 17.9999 23.6351C17.5619 23.6351 17.138 23.4804 16.803 23.1982C13.5917 20.5039 11.7499 17.9189 11.7499 16.1045C11.7071 15.3137 11.9788 14.5381 12.5057 13.9468C13.0326 13.3555 13.7719 12.9966 14.5624 12.9482C15.3528 12.9966 16.0921 13.3555 16.619 13.9468C17.1459 14.5381 17.4176 15.3137 17.3749 16.1045C17.3749 16.2703 17.4407 16.4292 17.5579 16.5464C17.6751 16.6636 17.8341 16.7295 17.9999 16.7295C18.1656 16.7295 18.3246 16.6636 18.4418 16.5464C18.559 16.4292 18.6249 16.2703 18.6249 16.1045C18.5821 15.3137 18.8538 14.5381 19.3807 13.9468C19.9076 13.3555 20.6469 12.9966 21.4374 12.9482C22.2278 12.9966 22.9671 13.3555 23.494 13.9468C24.0209 14.5381 24.2926 15.3137 24.2499 16.1045C24.2499 17.9189 22.408 20.5039 19.1967 23.1957V23.1982Z" fill="#F8F8FB"/>
</g>
<defs>
<clipPath id="clip0_5032_15078">
<rect width="15" height="15" fill="white" transform="translate(10.5 10.5)"/>
</clipPath>
</defs>
</svg>
