<svg width="32" height="32" viewBox="0 0 32 32" fill="none" xmlns="http://www.w3.org/2000/svg">
<rect x="4" y="4" width="24" height="24" rx="5" stroke="#757A97" stroke-width="2.67"/>
<path d="M11.3334 11.9993C11.7016 11.9993 12.0001 11.7009 12.0001 11.3327C12.0001 10.9645 11.7016 10.666 11.3334 10.666C10.9652 10.666 10.6667 10.9645 10.6667 11.3327C10.6667 11.7009 10.9652 11.9993 11.3334 11.9993Z" fill="#757A97" stroke="#757A97" stroke-width="2.66667" stroke-linecap="round" stroke-linejoin="round"/>
<path d="M20.6667 11.9993C21.0349 11.9993 21.3333 11.7009 21.3333 11.3327C21.3333 10.9645 21.0349 10.666 20.6667 10.666C20.2985 10.666 20 10.9645 20 11.3327C20 11.7009 20.2985 11.9993 20.6667 11.9993Z" fill="#757A97" stroke="#757A97" stroke-width="2.66667" stroke-linecap="round" stroke-linejoin="round"/>
<path d="M20.6667 21.3333C21.0349 21.3333 21.3333 21.0349 21.3333 20.6667C21.3333 20.2985 21.0349 20 20.6667 20C20.2985 20 20 20.2985 20 20.6667C20 21.0349 20.2985 21.3333 20.6667 21.3333Z" fill="#757A97" stroke="#757A97" stroke-width="2.66667" stroke-linecap="round" stroke-linejoin="round"/>
<path d="M11.3334 21.3333C11.7016 21.3333 12.0001 21.0349 12.0001 20.6667C12.0001 20.2985 11.7016 20 11.3334 20C10.9652 20 10.6667 20.2985 10.6667 20.6667C10.6667 21.0349 10.9652 21.3333 11.3334 21.3333Z" fill="#757A97" stroke="#757A97" stroke-width="2.66667" stroke-linecap="round" stroke-linejoin="round"/>
<path d="M15.9999 16.6673C16.3681 16.6673 16.6666 16.3688 16.6666 16.0007C16.6666 15.6325 16.3681 15.334 15.9999 15.334C15.6317 15.334 15.3333 15.6325 15.3333 16.0007C15.3333 16.3688 15.6317 16.6673 15.9999 16.6673Z" fill="#757A97" stroke="#757A97" stroke-width="2.66667" stroke-linecap="round" stroke-linejoin="round"/>
</svg>
