<svg width="43" height="43" viewBox="0 0 43 43" fill="none" xmlns="http://www.w3.org/2000/svg">
<g filter="url(#filter0_d_4684_13975)">
<rect x="3.11108" y="3.11133" width="36" height="36" rx="18" fill="#006337" shape-rendering="crispEdges"/>
<path d="M14.1111 21.1113C14.1111 20.8461 14.0057 20.5918 13.8182 20.4042C13.6307 20.2167 13.3763 20.1113 13.1111 20.1113H12.1111C11.8459 20.1113 11.5915 20.2167 11.404 20.4042C11.2164 20.5918 11.1111 20.8461 11.1111 21.1113C11.1111 21.3765 11.2164 21.6309 11.404 21.8184C11.5915 22.006 11.8459 22.1113 12.1111 22.1113H13.1111C13.3763 22.1113 13.6307 22.006 13.8182 21.8184C14.0057 21.6309 14.1111 21.3765 14.1111 21.1113ZM14.7511 26.1113L14.0411 26.8213C13.8548 27.0087 13.7503 27.2621 13.7503 27.5263C13.7503 27.7905 13.8548 28.044 14.0411 28.2313C14.2284 28.4176 14.4819 28.5221 14.7461 28.5221C15.0103 28.5221 15.2637 28.4176 15.4511 28.2313L16.1611 27.5213C16.3249 27.33 16.4105 27.084 16.4008 26.8323C16.3911 26.5806 16.2867 26.3419 16.1086 26.1638C15.9306 25.9857 15.6918 25.8813 15.4401 25.8716C15.1885 25.8619 14.9424 25.9475 14.7511 26.1113ZM21.1111 14.1113C21.3763 14.1113 21.6307 14.006 21.8182 13.8184C22.0057 13.6309 22.1111 13.3765 22.1111 13.1113V12.1113C22.1111 11.8461 22.0057 11.5918 21.8182 11.4042C21.6307 11.2167 21.3763 11.1113 21.1111 11.1113C20.8459 11.1113 20.5915 11.2167 20.404 11.4042C20.2164 11.5918 20.1111 11.8461 20.1111 12.1113V13.1113C20.1111 13.3765 20.2164 13.6309 20.404 13.8184C20.5915 14.006 20.8459 14.1113 21.1111 14.1113ZM26.7711 16.4513C27.0334 16.4502 27.2848 16.3461 27.4711 16.1613L28.1811 15.4513C28.2858 15.3617 28.3708 15.2514 28.4308 15.1273C28.4908 15.0032 28.5246 14.8681 28.5299 14.7304C28.5352 14.5927 28.512 14.4553 28.4617 14.327C28.4114 14.1987 28.3352 14.0821 28.2377 13.9847C28.1403 13.8872 28.0237 13.811 27.8954 13.7607C27.7671 13.7104 27.6297 13.6872 27.492 13.6925C27.3543 13.6978 27.2192 13.7316 27.0951 13.7916C26.971 13.8516 26.8607 13.9366 26.7711 14.0413L26.1111 14.7513C25.9248 14.9387 25.8203 15.1921 25.8203 15.4563C25.8203 15.7205 25.9248 15.974 26.1111 16.1613C26.2874 16.3367 26.5227 16.4401 26.7711 16.4513ZM14.7711 16.1613C14.9573 16.3461 15.2087 16.4502 15.4711 16.4513C15.6027 16.4521 15.7332 16.4269 15.855 16.3771C15.9768 16.3273 16.0876 16.254 16.1811 16.1613C16.3673 15.974 16.4719 15.7205 16.4719 15.4563C16.4719 15.1921 16.3673 14.9387 16.1811 14.7513L15.4711 14.0413C15.3785 13.9474 15.2683 13.8727 15.1469 13.8214C15.0254 13.7701 14.895 13.7432 14.7632 13.7422C14.6313 13.7413 14.5005 13.7664 14.3784 13.816C14.2562 13.8656 14.145 13.9387 14.0511 14.0313C13.9572 14.1239 13.8824 14.2341 13.8311 14.3555C13.7798 14.477 13.7529 14.6074 13.752 14.7393C13.7501 15.0056 13.8541 15.2617 14.0411 15.4513L14.7711 16.1613ZM30.1111 20.1113H29.1111C28.8459 20.1113 28.5915 20.2167 28.404 20.4042C28.2164 20.5918 28.1111 20.8461 28.1111 21.1113C28.1111 21.3765 28.2164 21.6309 28.404 21.8184C28.5915 22.006 28.8459 22.1113 29.1111 22.1113H30.1111C30.3763 22.1113 30.6307 22.006 30.8182 21.8184C31.0057 21.6309 31.1111 21.3765 31.1111 21.1113C31.1111 20.8461 31.0057 20.5918 30.8182 20.4042C30.6307 20.2167 30.3763 20.1113 30.1111 20.1113ZM27.4711 26.1113C27.2811 26.0057 27.0618 25.9648 26.8465 25.9949C26.6312 26.025 26.4316 26.1244 26.2779 26.2781C26.1242 26.4319 26.0247 26.6315 25.9946 26.8468C25.9645 27.0621 26.0054 27.2813 26.1111 27.4713L26.8211 28.1813C27.0084 28.3676 27.2619 28.4721 27.5261 28.4721C27.7903 28.4721 28.0437 28.3676 28.2311 28.1813C28.4173 27.994 28.5219 27.7405 28.5219 27.4763C28.5219 27.2121 28.4173 26.9587 28.2311 26.7713L27.4711 26.1113ZM21.1111 15.6113C20.0233 15.6113 18.9599 15.9339 18.0554 16.5382C17.151 17.1426 16.446 18.0016 16.0297 19.0066C15.6135 20.0116 15.5045 21.1174 15.7168 22.1843C15.929 23.2512 16.4528 24.2312 17.222 25.0004C17.9912 25.7696 18.9712 26.2934 20.0381 26.5056C21.105 26.7179 22.2108 26.6089 23.2158 26.1927C24.2208 25.7764 25.0798 25.0714 25.6842 24.167C26.2885 23.2625 26.6111 22.1991 26.6111 21.1113C26.6084 19.6534 26.0281 18.256 24.9973 17.2252C23.9664 16.1943 22.569 15.614 21.1111 15.6113ZM21.1111 24.6113C20.4188 24.6113 19.7422 24.4061 19.1666 24.0215C18.591 23.6369 18.1424 23.0903 17.8775 22.4507C17.6126 21.8112 17.5433 21.1074 17.6783 20.4285C17.8134 19.7496 18.1467 19.1259 18.6362 18.6365C19.1257 18.147 19.7493 17.8136 20.4283 17.6786C21.1072 17.5435 21.8109 17.6128 22.4505 17.8777C23.09 18.1427 23.6366 18.5913 24.0212 19.1668C24.4058 19.7424 24.6111 20.4191 24.6111 21.1113C24.6111 22.0396 24.2423 22.9298 23.586 23.5862C22.9296 24.2426 22.0393 24.6113 21.1111 24.6113ZM21.1111 28.1113C20.8459 28.1113 20.5915 28.2167 20.404 28.4042C20.2164 28.5918 20.1111 28.8461 20.1111 29.1113V30.1113C20.1111 30.3765 20.2164 30.6309 20.404 30.8184C20.5915 31.006 20.8459 31.1113 21.1111 31.1113C21.3763 31.1113 21.6307 31.006 21.8182 30.8184C22.0057 30.6309 22.1111 30.3765 22.1111 30.1113V29.1113C22.1111 28.8461 22.0057 28.5918 21.8182 28.4042C21.6307 28.2167 21.3763 28.1113 21.1111 28.1113Z" fill="white"/>
<path d="M21.1111 24.6113C20.4188 24.6113 19.7422 24.4061 19.1666 24.0215C18.591 23.6369 18.1424 23.0903 17.8775 22.4507C17.6126 21.8112 17.5433 21.1074 17.6783 20.4285C17.8134 19.7496 18.1467 19.1259 18.6362 18.6365C19.1257 18.147 19.7493 17.8136 20.4283 17.6786C21.1072 17.5435 21.8109 17.6128 22.4505 17.8777C23.09 18.1427 23.6366 18.5913 24.0212 19.1668C24.4058 19.7424 24.6111 20.4191 24.6111 21.1113C24.6111 22.0396 24.2423 22.9298 23.586 23.5862C22.9296 24.2426 22.0393 24.6113 21.1111 24.6113Z" fill="white"/>
</g>
<defs>
<filter id="filter0_d_4684_13975" x="-2.71797e-05" y="0.000216961" width="42.2222" height="42.2222" filterUnits="userSpaceOnUse" color-interpolation-filters="sRGB">
<feFlood flood-opacity="0" result="BackgroundImageFix"/>
<feColorMatrix in="SourceAlpha" type="matrix" values="0 0 0 0 0 0 0 0 0 0 0 0 0 0 0 0 0 0 127 0" result="hardAlpha"/>
<feOffset/>
<feGaussianBlur stdDeviation="1.55556"/>
<feComposite in2="hardAlpha" operator="out"/>
<feColorMatrix type="matrix" values="0 0 0 0 1 0 0 0 0 1 0 0 0 0 1 0 0 0 0.65 0"/>
<feBlend mode="normal" in2="BackgroundImageFix" result="effect1_dropShadow_4684_13975"/>
<feBlend mode="normal" in="SourceGraphic" in2="effect1_dropShadow_4684_13975" result="shape"/>
</filter>
</defs>
</svg>
