<svg width="16" height="16" viewBox="0 0 16 16" fill="none" xmlns="http://www.w3.org/2000/svg">
<path fill-rule="evenodd" clip-rule="evenodd" d="M10.4696 9.46952C10.7625 9.17663 11.2373 9.17663 11.5302 9.46952C11.823 9.76242 11.8231 10.2372 11.5302 10.5301L9.23722 12.823C8.55384 13.5063 7.44599 13.5063 6.76261 12.823L4.46964 10.5301C4.17677 10.2372 4.17681 9.76242 4.46964 9.46952C4.76253 9.17663 5.23729 9.17663 5.53019 9.46952L7.82315 11.7625C7.92075 11.8599 8.07908 11.8599 8.17667 11.7625L10.4696 9.46952ZM6.76261 3.17655C7.44601 2.49323 8.55382 2.49323 9.23722 3.17655L11.5302 5.46952C11.823 5.76242 11.823 6.23721 11.5302 6.53007C11.2373 6.82286 10.7625 6.82283 10.4696 6.53007L8.17667 4.2371C8.07906 4.13957 7.92077 4.13957 7.82315 4.2371L5.53019 6.53007C5.23732 6.82286 4.76252 6.82283 4.46964 6.53007C4.17677 6.23719 4.17681 5.76242 4.46964 5.46952L6.76261 3.17655Z" fill="#757A97"/>
</svg>
