<svg width="32" height="32" viewBox="0 0 32 32" fill="none" xmlns="http://www.w3.org/2000/svg">
<rect width="32" height="32" rx="8" fill="#F8F8FB" fill-opacity="0.15"/>
<path d="M11.884 21.176C11.116 21.176 10.444 20.952 9.868 20.504C9.292 20.056 8.84933 19.416 8.54 18.584C8.23067 17.7413 8.076 16.7333 8.076 15.56C8.076 14.408 8.23067 13.4107 8.54 12.568C8.84933 11.7253 9.292 11.08 9.868 10.632C10.444 10.1733 11.116 9.944 11.884 9.944C12.6627 9.944 13.3347 10.1733 13.9 10.632C14.476 11.08 14.9187 11.7253 15.228 12.568C15.5373 13.4107 15.692 14.408 15.692 15.56C15.692 16.7333 15.5373 17.7413 15.228 18.584C14.9187 19.416 14.476 20.056 13.9 20.504C13.3347 20.952 12.6627 21.176 11.884 21.176ZM11.884 19.384C12.3427 19.384 12.7107 19.2133 12.988 18.872C13.2653 18.5307 13.468 18.072 13.596 17.496C13.7347 16.9093 13.804 16.264 13.804 15.56C13.804 14.9307 13.7347 14.3227 13.596 13.736C13.468 13.1493 13.2653 12.6747 12.988 12.312C12.7107 11.9387 12.3427 11.752 11.884 11.752C11.4147 11.752 11.036 11.9387 10.748 12.312C10.46 12.6747 10.252 13.1493 10.124 13.736C10.0067 14.3227 9.948 14.9307 9.948 15.56C9.948 16.264 10.0067 16.9093 10.124 17.496C10.252 18.072 10.46 18.5307 10.748 18.872C11.036 19.2133 11.4147 19.384 11.884 19.384ZM20.1898 21.176C19.3791 21.176 18.6858 21.0373 18.1098 20.76C17.5338 20.472 17.0004 20.0347 16.5098 19.448L17.6938 18.264C18.0564 18.648 18.4191 18.9307 18.7818 19.112C19.1444 19.2933 19.5498 19.384 19.9978 19.384C20.6164 19.384 21.0858 19.2347 21.4058 18.936C21.7258 18.6267 21.8858 18.2427 21.8858 17.784C21.8858 17.336 21.7738 16.9893 21.5498 16.744C21.3364 16.488 21.0484 16.3067 20.6858 16.2C20.3231 16.0827 19.9178 16.024 19.4698 16.024C19.3418 16.024 19.2031 16.0293 19.0538 16.04C18.9151 16.04 18.7871 16.0507 18.6698 16.072V14.44C18.8511 14.4507 18.9791 14.4613 19.0538 14.472C19.1391 14.472 19.2404 14.472 19.3578 14.472C20.0298 14.472 20.5471 14.344 20.9098 14.088C21.2724 13.8213 21.4538 13.464 21.4538 13.016C21.4538 12.6107 21.3258 12.296 21.0698 12.072C20.8138 11.848 20.4564 11.736 19.9978 11.736C19.5818 11.736 19.2031 11.8267 18.8618 12.008C18.5311 12.1893 18.2058 12.4667 17.8858 12.84L16.6858 11.688C17.2404 11.0587 17.7844 10.6107 18.3178 10.344C18.8511 10.0773 19.4698 9.944 20.1738 9.944C20.8138 9.944 21.3684 10.0667 21.8378 10.312C22.3071 10.5467 22.6644 10.8827 22.9098 11.32C23.1658 11.7467 23.2938 12.248 23.2938 12.824C23.2938 13.6987 22.9684 14.4027 22.3178 14.936C21.6778 15.4693 20.8084 15.736 19.7098 15.736V14.744C20.4884 14.744 21.1818 14.8613 21.7898 15.096C22.3978 15.3307 22.8778 15.6827 23.2298 16.152C23.5818 16.6213 23.7578 17.208 23.7578 17.912C23.7578 18.4987 23.6191 19.0427 23.3418 19.544C23.0644 20.0347 22.6591 20.4293 22.1258 20.728C21.5924 21.0267 20.9471 21.176 20.1898 21.176Z" fill="#E5E7EF"/>
</svg>
