<svg width="24" height="24" viewBox="0 0 24 24" fill="none" xmlns="http://www.w3.org/2000/svg">
<g clip-path="url(#clip0_88_2958)">
<path d="M16 3H1V16H16V3Z" stroke="#A5A9BE" stroke-width="2" stroke-linecap="round" stroke-linejoin="round"/>
<path d="M10.4034 5.84961C10.0137 5.85567 9.63253 5.96446 9.29833 6.16498C8.96413 6.3655 8.68875 6.65066 8.50002 6.99165C8.31128 6.65066 8.03591 6.3655 7.70171 6.16498C7.36751 5.96446 6.98631 5.85567 6.59661 5.84961C5.97539 5.8766 5.3901 6.14836 4.96861 6.60552C4.54712 7.06267 4.32369 7.66806 4.34713 8.28943C4.34713 9.86303 6.00344 11.5816 7.39258 12.7469C7.70274 13.0075 8.09489 13.1504 8.50002 13.1504C8.90515 13.1504 9.2973 13.0075 9.60746 12.7469C10.9966 11.5816 12.6529 9.86303 12.6529 8.28943C12.6764 7.66806 12.4529 7.06267 12.0314 6.60552C11.6099 6.14836 11.0246 5.8766 10.4034 5.84961ZM9.16275 12.2174C8.97725 12.3736 8.74253 12.4592 8.50002 12.4592C8.25751 12.4592 8.02279 12.3736 7.83729 12.2174C6.05916 10.7254 5.03928 9.29408 5.03928 8.28943C5.01562 7.85155 5.16607 7.42208 5.45781 7.09468C5.74955 6.76728 6.15891 6.56853 6.59661 6.54176C7.03432 6.56853 7.44368 6.76728 7.73542 7.09468C8.02716 7.42208 8.1776 7.85155 8.15395 8.28943C8.15395 8.38121 8.19041 8.46924 8.25531 8.53414C8.32021 8.59904 8.40824 8.6355 8.50002 8.6355C8.5918 8.6355 8.67983 8.59904 8.74473 8.53414C8.80963 8.46924 8.84609 8.38121 8.84609 8.28943C8.82244 7.85155 8.97288 7.42208 9.26462 7.09468C9.55636 6.76728 9.96572 6.56853 10.4034 6.54176C10.8411 6.56853 11.2505 6.76728 11.5422 7.09468C11.834 7.42208 11.9844 7.85155 11.9608 8.28943C11.9608 9.29408 10.9409 10.7268 9.16275 12.2174Z" fill="#A5A9BE"/>
<path d="M9.16275 12.2174C8.97725 12.3736 8.74253 12.4592 8.50002 12.4592C8.25751 12.4592 8.02279 12.3736 7.83729 12.2174C6.05916 10.7254 5.03928 9.29408 5.03928 8.28943C5.01562 7.85155 5.16607 7.42208 5.45781 7.09468C5.74955 6.76728 6.15891 6.56853 6.59661 6.54176C7.03432 6.56853 7.44368 6.76728 7.73542 7.09468C8.02716 7.42208 8.1776 7.85155 8.15395 8.28943C8.15395 8.38121 8.19041 8.46924 8.25531 8.53414C8.32021 8.59904 8.40824 8.6355 8.50002 8.6355C8.5918 8.6355 8.67983 8.59904 8.74473 8.53414C8.80963 8.46924 8.84609 8.38121 8.84609 8.28943C8.82244 7.85155 8.97288 7.42208 9.26462 7.09468C9.55636 6.76728 9.96572 6.56853 10.4034 6.54176C10.8411 6.56853 11.2505 6.76728 11.5422 7.09468C11.834 7.42208 11.9844 7.85155 11.9608 8.28943C11.9608 9.29408 10.9409 10.7268 9.16275 12.2174Z" fill="#A5A9BE"/>
<path d="M16 8H20L23 11V16H16V8Z" stroke="#A5A9BE" stroke-width="2" stroke-linecap="round" stroke-linejoin="round"/>
<path d="M5.5 21C6.88071 21 8 19.8807 8 18.5C8 17.1193 6.88071 16 5.5 16C4.11929 16 3 17.1193 3 18.5C3 19.8807 4.11929 21 5.5 21Z" stroke="#A5A9BE" stroke-width="2" stroke-linecap="round" stroke-linejoin="round"/>
<path d="M18.5 21C19.8807 21 21 19.8807 21 18.5C21 17.1193 19.8807 16 18.5 16C17.1193 16 16 17.1193 16 18.5C16 19.8807 17.1193 21 18.5 21Z" stroke="#A5A9BE" stroke-width="2" stroke-linecap="round" stroke-linejoin="round"/>
</g>
<defs>
<clipPath id="clip0_88_2958">
<rect width="24" height="24" fill="white"/>
</clipPath>
</defs>
</svg>
