<svg width="32" height="32" viewBox="0 0 32 32" fill="none" xmlns="http://www.w3.org/2000/svg">
<rect width="32" height="32" rx="8" fill="#F8F8FB" fill-opacity="0.15"/>
<path d="M11.884 21.176C11.116 21.176 10.444 20.952 9.868 20.504C9.292 20.056 8.84933 19.416 8.54 18.584C8.23067 17.7413 8.076 16.7333 8.076 15.56C8.076 14.408 8.23067 13.4107 8.54 12.568C8.84933 11.7253 9.292 11.08 9.868 10.632C10.444 10.1733 11.116 9.944 11.884 9.944C12.6627 9.944 13.3347 10.1733 13.9 10.632C14.476 11.08 14.9187 11.7253 15.228 12.568C15.5373 13.4107 15.692 14.408 15.692 15.56C15.692 16.7333 15.5373 17.7413 15.228 18.584C14.9187 19.416 14.476 20.056 13.9 20.504C13.3347 20.952 12.6627 21.176 11.884 21.176ZM11.884 19.384C12.3427 19.384 12.7107 19.2133 12.988 18.872C13.2653 18.5307 13.468 18.072 13.596 17.496C13.7347 16.9093 13.804 16.264 13.804 15.56C13.804 14.9307 13.7347 14.3227 13.596 13.736C13.468 13.1493 13.2653 12.6747 12.988 12.312C12.7107 11.9387 12.3427 11.752 11.884 11.752C11.4147 11.752 11.036 11.9387 10.748 12.312C10.46 12.6747 10.252 13.1493 10.124 13.736C10.0067 14.3227 9.948 14.9307 9.948 15.56C9.948 16.264 10.0067 16.9093 10.124 17.496C10.252 18.072 10.46 18.5307 10.748 18.872C11.036 19.2133 11.4147 19.384 11.884 19.384ZM23.4828 12.936C23.4828 13.3733 23.4188 13.8 23.2908 14.216C23.1628 14.632 22.9601 15.0587 22.6828 15.496C22.4054 15.9333 22.0481 16.3973 21.6108 16.888L18.7148 20.216L18.5868 19.24H23.6588V21H16.9868V19.464L19.9308 16.136C20.3681 15.6347 20.7094 15.2133 20.9548 14.872C21.2108 14.5307 21.3868 14.2213 21.4828 13.944C21.5894 13.6667 21.6428 13.3947 21.6428 13.128C21.6428 12.68 21.5094 12.3387 21.2428 12.104C20.9761 11.8587 20.6668 11.736 20.3148 11.736C19.9414 11.736 19.5734 11.848 19.2108 12.072C18.8481 12.296 18.4641 12.6907 18.0588 13.256L16.7148 12.28C17.0241 11.7787 17.3548 11.352 17.7068 11C18.0694 10.648 18.4641 10.3867 18.8908 10.216C19.3174 10.0347 19.7868 9.944 20.2988 9.944C20.9601 9.944 21.5254 10.0773 21.9948 10.344C22.4748 10.6 22.8428 10.9573 23.0988 11.416C23.3548 11.864 23.4828 12.3707 23.4828 12.936Z" fill="#E5E7EF"/>
</svg>
