<svg width="32" height="32" viewBox="0 0 32 32" fill="none" xmlns="http://www.w3.org/2000/svg">
<rect width="32" height="32" rx="16" fill="#E5E7EF"/>
<path d="M16.1999 15.1038C17.9315 15.1038 19.3353 13.7001 19.3353 11.9684C19.3353 10.2368 17.9315 8.83301 16.1999 8.83301C14.4682 8.83301 13.0645 10.2368 13.0645 11.9684C13.0645 13.7001 14.4682 15.1038 16.1999 15.1038Z" stroke="#777A80" stroke-width="1.34375" stroke-miterlimit="10"/>
<path d="M20.818 17.791H11.5817C10.9163 17.791 10.377 18.3463 10.377 19.0314V19.5276C10.377 21.432 12.7366 23.166 16.1999 23.166C19.6631 23.166 22.0228 21.432 22.0228 19.5276V19.0314C22.0228 18.3463 21.4835 17.791 20.818 17.791Z" stroke="#777A80" stroke-width="1.34375" stroke-miterlimit="10"/>
</svg>
