<svg width="43" height="43" viewBox="0 0 43 43" fill="none" xmlns="http://www.w3.org/2000/svg">
<g filter="url(#filter0_d_4684_13999)">
<rect x="3.11108" y="3.11133" width="36" height="36" rx="18" fill="#006337" shape-rendering="crispEdges"/>
<path d="M28.9834 22.3727H28.7747V20.3088C28.7747 17.5956 26.5717 15.3926 23.8585 15.3926H22.6527C22.1889 14.7433 21.5164 14.2795 20.7047 14.094V12.4475C20.7279 12.4243 20.7511 12.4011 20.7743 12.4011C20.9598 12.2388 21.1685 12.146 21.4004 12.146H21.6555C21.9338 12.146 22.1657 12.2852 22.3744 12.4707C22.6063 12.7026 22.9541 12.8417 23.302 12.8417C24.1832 12.8417 24.8557 12.0301 24.6238 11.1257C24.5078 10.6619 24.1136 10.2909 23.6498 10.1749C23.1396 10.059 22.6758 10.1981 22.3512 10.5227C22.1657 10.7083 21.9338 10.8242 21.6787 10.8242H21.3772C21.1453 10.8242 20.9366 10.7315 20.7511 10.5691C20.5424 10.3836 20.2641 10.2677 19.9627 10.2677C19.6612 10.2677 19.3829 10.3836 19.1742 10.5691C19.0119 10.6851 18.8032 10.801 18.5713 10.801H18.2698C18.0147 10.801 17.7828 10.6851 17.5973 10.4996C17.2727 10.1749 16.8089 10.0358 16.2987 10.1517C15.8349 10.2677 15.4407 10.6387 15.3247 11.1025C15.0928 12.0069 15.7653 12.8185 16.6465 12.8185C17.0176 12.8185 17.3422 12.6794 17.5741 12.4475C17.7596 12.262 18.0147 12.1228 18.293 12.1228H18.5713C18.8032 12.1228 19.0119 12.2156 19.1974 12.3779C19.2206 12.4011 19.2438 12.4243 19.267 12.4475V14.094C18.4785 14.2795 17.7828 14.7433 17.3422 15.3926H14.3508V14.4186C14.3508 14.2099 14.1652 14.0244 13.9565 14.0244H12.7275C12.5188 14.0244 12.3333 14.2099 12.3333 14.4186V20.1233C12.3333 20.332 12.5188 20.5175 12.7275 20.5175H13.9565C14.1652 20.5175 14.3508 20.332 14.3508 20.1233V19.1493H17.3422C17.922 19.9841 18.8959 20.5175 19.9858 20.5175C21.0758 20.5175 22.0497 19.9609 22.6295 19.1493H23.8353C24.4846 19.1493 25.018 19.6827 25.018 20.332V22.3959H24.8093C24.2991 22.3959 23.8817 22.8133 23.8817 23.3234C23.8817 23.8336 24.2991 24.251 24.8093 24.251H28.9602C29.4704 24.251 29.8878 23.8336 29.8878 23.3234C29.911 22.7901 29.4936 22.3727 28.9834 22.3727Z" fill="white"/>
<path d="M27.4296 25.9887C27.3369 25.78 27.1281 25.6641 26.8962 25.6641C26.6644 25.6641 26.4556 25.78 26.3629 25.9887C26.3629 25.9887 25.157 28.3309 24.8787 28.8642C24.5541 29.5135 24.5541 30.2324 24.8787 30.8817C25.273 31.647 26.0382 32.1108 26.8962 32.1108C27.2441 32.1108 27.5919 32.0412 27.8934 31.8789C28.4268 31.6238 28.821 31.1368 29.0065 30.5803C29.192 30.0005 29.1456 29.3976 28.8906 28.8642L27.4296 25.9887Z" fill="white"/>
</g>
<defs>
<filter id="filter0_d_4684_13999" x="-2.71797e-05" y="0.000216961" width="42.2222" height="42.2222" filterUnits="userSpaceOnUse" color-interpolation-filters="sRGB">
<feFlood flood-opacity="0" result="BackgroundImageFix"/>
<feColorMatrix in="SourceAlpha" type="matrix" values="0 0 0 0 0 0 0 0 0 0 0 0 0 0 0 0 0 0 127 0" result="hardAlpha"/>
<feOffset/>
<feGaussianBlur stdDeviation="1.55556"/>
<feComposite in2="hardAlpha" operator="out"/>
<feColorMatrix type="matrix" values="0 0 0 0 1 0 0 0 0 1 0 0 0 0 1 0 0 0 0.65 0"/>
<feBlend mode="normal" in2="BackgroundImageFix" result="effect1_dropShadow_4684_13999"/>
<feBlend mode="normal" in="SourceGraphic" in2="effect1_dropShadow_4684_13999" result="shape"/>
</filter>
</defs>
</svg>
