<svg width="32" height="32" viewBox="0 0 32 32" fill="none" xmlns="http://www.w3.org/2000/svg">
<rect width="32" height="32" rx="16" fill="#1D222B" fill-opacity="0.22"/>
<path d="M10.2718 20.3446C9.91186 20.7045 9.90451 21.3435 10.2791 21.7181C10.6611 22.0927 11.3001 22.0854 11.6526 21.7328L16.0009 17.3845L20.3419 21.7255C20.7091 22.0927 21.3408 22.0927 21.7154 21.7181C22.09 21.3362 22.09 20.7119 21.7227 20.3446L17.3818 16.0037L21.7227 11.6554C22.09 11.2881 22.0973 10.6565 21.7154 10.2819C21.3408 9.90728 20.7091 9.90728 20.3419 10.2745L16.0009 14.6155L11.6526 10.2745C11.3001 9.91462 10.6537 9.89993 10.2791 10.2819C9.90451 10.6565 9.91186 11.3028 10.2718 11.6554L14.6127 16.0037L10.2718 20.3446Z" fill="#E5E7EF"/>
</svg>
