<svg width="43" height="43" viewBox="0 0 43 43" fill="none" xmlns="http://www.w3.org/2000/svg">
<g filter="url(#filter0_d_4874_13625)">
<rect x="3.11108" y="3.11133" width="36" height="36" rx="18" fill="#006337" shape-rendering="crispEdges"/>
<path d="M26.8155 18.9514C26.4375 18.3659 25.9143 17.9022 25.3025 17.6011L25.6153 16.1973C25.9221 14.8227 25.5928 13.4043 24.7131 12.3054C23.8315 11.2075 22.5192 10.5762 21.1116 10.5762C19.7039 10.5762 18.3916 11.2065 17.51 12.3054C16.6293 13.4043 16.3 14.8228 16.6079 16.1973L16.9206 17.6011C16.3088 17.9021 15.7856 18.3659 15.4076 18.9514L10.3204 26.8426C10.0993 27.1855 10.1928 27.6434 10.5299 27.8733L12.3322 29.0979C12.6653 29.3239 13.1174 29.2479 13.357 28.9284L16.3029 25.0131V30.8944C16.3029 31.3104 16.6391 31.6465 17.055 31.6465H25.1672C25.5832 31.6465 25.9193 31.3104 25.9193 30.8944V25.0131L28.8652 28.9284C29.1049 29.2469 29.5559 29.3229 29.8901 29.0979L31.6924 27.8733C32.0295 27.6444 32.123 27.1865 31.9018 26.8426L26.8155 18.9514ZM12.585 27.4504L11.983 27.0412L12.1418 26.7947L12.7614 27.2156L12.585 27.4504ZM21.1115 18.3483C20.1188 17.7258 18.7734 16.6308 18.7734 15.2698C18.7734 13.8688 20.0067 12.8927 21.1115 12.8927C22.2162 12.8927 23.4496 13.8689 23.4496 15.2698C23.4496 16.6317 22.1042 17.7248 21.1115 18.3483ZM29.6379 27.4504L29.4616 27.2156L30.0812 26.7947L30.24 27.0412L29.6379 27.4504Z" fill="white"/>
</g>
<defs>
<filter id="filter0_d_4874_13625" x="-2.71797e-05" y="0.000216961" width="42.2222" height="42.2222" filterUnits="userSpaceOnUse" color-interpolation-filters="sRGB">
<feFlood flood-opacity="0" result="BackgroundImageFix"/>
<feColorMatrix in="SourceAlpha" type="matrix" values="0 0 0 0 0 0 0 0 0 0 0 0 0 0 0 0 0 0 127 0" result="hardAlpha"/>
<feOffset/>
<feGaussianBlur stdDeviation="1.55556"/>
<feComposite in2="hardAlpha" operator="out"/>
<feColorMatrix type="matrix" values="0 0 0 0 1 0 0 0 0 1 0 0 0 0 1 0 0 0 0.65 0"/>
<feBlend mode="normal" in2="BackgroundImageFix" result="effect1_dropShadow_4874_13625"/>
<feBlend mode="normal" in="SourceGraphic" in2="effect1_dropShadow_4874_13625" result="shape"/>
</filter>
</defs>
</svg>
